<svg xmlns="http://www.w3.org/2000/svg" viewBox="0 0 925.25 970.64"><defs><style>.cls-1{fill:#fcfcfc;}.cls-2{fill:#a35ff6;}.cls-3{fill:#a763f8;}.cls-4{fill:#a762f7;}.cls-5{fill:#fbfbfb;}.cls-6{fill:#fafbfb;}.cls-7{fill:#fcfcfb;}.cls-8{fill:#fbfbfa;}.cls-9{fill:#fbfcfc;}.cls-10{fill:#fafafb;}.cls-11{fill:#b56ef7;}.cls-12{fill:#b06af7;}.cls-13{fill:#a265e9;}.cls-14{fill:#b271f5;}.cls-15{fill:#fafafa;}.cls-16{fill:#b46ff7;}.cls-17{fill:#af6af6;}.cls-18{fill:#af71f5;}.cls-19{fill:#b474f6;}.cls-20{fill:#b472f6;}.cls-21{fill:#af72f2;}.cls-22{fill:#b374f3;}.cls-23{fill:#a564f6;}.cls-24{fill:#fbfcfb;}.cls-25{fill:#b071f6;}.cls-26{fill:#b473f5;}.cls-27{fill:#b577f6;}.cls-28{fill:#f9fbfb;}.cls-29{fill:#b671f6;}.cls-30{fill:#f9fafa;}.cls-31{fill:#b872f5;}.cls-32{fill:#b574f6;}.cls-33{fill:#b575f6;}.cls-34{fill:#fbfafb;}.cls-35{fill:#b87df6;}.cls-36{fill:#b46efa;}.cls-37{fill:#aa68f8;}.cls-38{fill:#fafaf9;}.cls-39{fill:#b46df6;}.cls-40{fill:#f9fafb;}.cls-41{fill:#ae72f4;}.cls-42{fill:#ab65ef;}.cls-43{fill:#b472f5;}.cls-44{fill:#b36df7;}.cls-45{fill:#b576f6;}.cls-46{fill:#b678f4;}.cls-47{fill:#b876f3;}.cls-48{fill:#ae70f7;}.cls-49{fill:#b672f7;}.cls-50{fill:#f8f9f9;}.cls-51{fill:#af71f4;}.cls-52{fill:#b774f7;}.cls-53{fill:#b571f5;}.cls-54{fill:#f9f9fa;}.cls-55{fill:#f8f8f8;}.cls-56{fill:#a96af6;}.cls-57{fill:#b06ff5;}.cls-58{fill:#b579f5;}.cls-59{fill:#b372f8;}.cls-60{fill:#9258da;}.cls-61{fill:#b675f5;}.cls-62{fill:#b578f4;}.cls-63{fill:#ba7cf3;}.cls-64{fill:#b477f5;}.cls-65{fill:#a871ea;}.cls-66{fill:#b371f6;}.cls-67{fill:#b170f5;}.cls-68{fill:#fafbfc;}.cls-69{fill:#ae6ff7;}.cls-70{fill:#b674f5;}.cls-71{fill:#ac71f4;}.cls-72{fill:#b271f6;}.cls-73{fill:#b26ff4;}.cls-74{fill:#b87bf6;}.cls-75{fill:#b579f4;}.cls-76{fill:#b76ff5;}.cls-77{fill:#9b5ddc;}.cls-78{fill:#b472f4;}.cls-79{fill:#4b237a;}.cls-80{fill:#b86ef4;}.cls-81{fill:#874bc4;}.cls-82{fill:#b878f3;}.cls-83{fill:#bc7bf2;}.cls-84{fill:#b172f5;}.cls-85{fill:#b278f1;}.cls-86{fill:#b373f3;}.cls-87{fill:#f6f6f6;}.cls-88{fill:#ae6df6;}.cls-89{fill:#b47df5;}.cls-90{fill:#814cb8;}.cls-91{fill:#b46cf7;}.cls-92{fill:#b574f5;}.cls-93{fill:#ab6cf5;}.cls-94{fill:#a769e6;}.cls-95{fill:#8c52cb;}.cls-96{fill:#65349d;}.cls-97{fill:#5f2d98;}.cls-98{fill:#a366e9;}.cls-99{fill:#b06ef4;}.cls-100{fill:#ae72f2;}.cls-101{fill:#723faa;}.cls-102{fill:#b37aef;}.cls-103{fill:#6c36ae;}.cls-104{fill:#b27bf2;}.cls-105{fill:#6231a0;}.cls-106{fill:#b473f3;}.cls-107{fill:#814bc4;}.cls-108{fill:#310e5a;}.cls-109{fill:#341858;}.cls-110{fill:#300f56;}.cls-111{fill:#2a0f48;}.cls-112{fill:#3a1671;}.cls-113{fill:#ac6cef;}.cls-114{fill:#4c2579;}.cls-115{fill:#884ccd;}.cls-116{fill:#b478f0;}.cls-117{fill:#b87df0;}.cls-118{fill:#8347d0;}.cls-119{fill:#753dbb;}.cls-120{fill:#f3f4f4;}.cls-121{fill:#b47bf1;}.cls-122{fill:#b676f2;}.cls-123{fill:#391761;}.cls-124{fill:#f5f6f6;}.cls-125{fill:#492379;}.cls-126{fill:#b67af0;}.cls-127{fill:#371a5a;}.cls-128{fill:#f3f4f5;}.cls-129{fill:#381c62;}.cls-130{fill:#381462;}.cls-131{fill:#d0c4ec;}.cls-132{fill:#eff0f1;}.cls-133{fill:#eeeff0;}.cls-134{fill:#3b196b;}.cls-135{fill:#f4f6f5;}.cls-136{fill:#f5f5f7;}.cls-137{fill:#f2f2f4;}.cls-138{fill:#9353d5;}.cls-139{fill:#f6f6f8;}.cls-140{fill:#b97fef;}.cls-141{fill:#461b7b;}.cls-142{fill:#b879ef;}.cls-143{fill:#b079ed;}.cls-144{fill:#d6d4d4;}.cls-145{fill:#b878f0;}.cls-146{fill:#b874eb;}.cls-147{fill:#b777ef;}.cls-148{fill:#585463;}.cls-149{fill:#f4f4f6;}.cls-150{fill:#512782;}.cls-151{fill:#b275ee;}.cls-152{fill:#af7aeb;}.cls-153{fill:#c7c6c8;}.cls-154{fill:#c3c3c6;}.cls-155{fill:#807b89;}.cls-156{fill:#381c67;}.cls-157{fill:#f0eff2;}.cls-158{fill:#b979ed;}.cls-159{fill:#c377ef;}.cls-160{fill:#301951;}.cls-161{fill:#321364;}.cls-162{fill:#b97eed;}.cls-163{fill:#bc7aec;}.cls-164{fill:#7d7686;}.cls-165{fill:#b478eb;}.cls-166{fill:#bd8ae5;}.cls-167{fill:#ebebf1;}.cls-168{fill:#44266e;}.cls-169{fill:#f3f3f5;}.cls-170{fill:#dec2eb;}.cls-171{fill:#b9b9c1;}.cls-172{fill:#9f60e4;}.cls-173{fill:#666174;}.cls-174{fill:#5b2e8a;}.cls-175{fill:#787783;}.cls-176{fill:#b16ff5;}.cls-177{fill:#b36ef8;}.cls-178{fill:#03020c;}.cls-179{fill:#171329;}.cls-180{fill:#080515;}.cls-181{fill:#04040d;}.cls-182{fill:#b16df5;}.cls-183{fill:#7d3ccc;}.cls-184{fill:#252526;}.cls-185{fill:#0b071b;}.cls-186{fill:#05050d;}.cls-187{fill:#bbbac8;}.cls-188{fill:#7644bb;}.cls-189{fill:#06050e;}.cls-190{fill:#090516;}.cls-191{fill:#0a0a14;}.cls-192{fill:#0d061a;}.cls-193{fill:#04030e;}.cls-194{fill:#0a041c;}.cls-195{fill:#b674f4;}.cls-196{fill:#17171f;}.cls-197{fill:#070414;}.cls-198{fill:#070413;}.cls-199{fill:#0a061a;}.cls-200{fill:#0e0523;}.cls-201{fill:#0a0623;}.cls-202{fill:#0d0723;}.cls-203{fill:#130a2b;}.cls-204{fill:#ab6ef4;}.cls-205{fill:#f6f7f7;}.cls-206{fill:#765dca;}.cls-207{fill:#faf7f5;}.cls-208{fill:#a371e5;}.cls-209{fill:#5f389d;}.cls-210{fill:#231838;}</style></defs><g id="Capa_2" data-name="Capa 2"><g id="Capa_1-2" data-name="Capa 1"><path class="cls-1" d="M810.2,534.45c19,0,38,.08,56.93,0,8.5-.05,12.59-3.88,12.65-11.29.06-8-4.89-13-13.21-13-24.6-.09-49.2,0-73.8-.12-23-.13-37.7-14.44-38.58-37.6-.34-9.11-.76-18.28,1-27.32,3.54-18.74,16.6-29.87,35.69-30,28.64-.18,57.28.15,85.92-.13,23.14-.22,34.75,16.4,40,32,.85,2.54.11,3.59-2.52,3.53h-5.8c-34.79,0-69.58-.06-104.37,0-9.64,0-14.25,5.33-13.29,14.64.65,6.22,4.31,9.89,10.73,10.07,8.43.22,16.87.08,25.3.09,16.52,0,33-.09,49.55.14,24.79.34,39,14.58,39.31,39.51.12,9.26.91,18.59-1.63,27.76-4.44,16-17.19,26.91-34,27.25-24.24.48-48.49.26-72.74.18-8.94,0-18,.83-26.79-1.17-17.49-4-26.33-16.86-32.62-32.19-1.49-3.64,1.78-2.5,3.28-2.51,19.68-.07,39.36,0,59,0Z"/><path class="cls-1" d="M396.19,534.5H471.3c13.7,0,27.41,0,41.11-.14,8.36-.1,12.18-4,12.13-11.8-.06-7.45-5-12.49-12.6-12.52q-37.43-.14-74.85-.05a35.7,35.7,0,0,1-17.72-4.17C409,500.09,402.58,491.33,401,479.69c-2-15-3.35-30.16,3.46-44.47,6.12-12.88,16.54-20,30.85-20.08,28.28-.27,56.58.24,84.86-.24,18-.3,29.45,8.33,37,23.68,5.88,12,5.82,12-7.23,11.95q-50.34-.06-100.67,0c-8.78,0-12.52,4.1-12.54,12.64,0,8,3.72,12.09,11.8,12.14,22.31.14,44.62.11,66.94.16,3.16,0,6.33,0,9.47.23,20,1.54,32.6,13,34.65,32.93,1.32,12.85,2.42,26-2.46,38.55-5.42,13.91-15.7,22.45-30.63,22.73-30.91.57-61.84.42-92.75-.07-13.94-.23-23.89-8.24-31-19.81A52.88,52.88,0,0,1,396.19,534.5Z"/><path class="cls-1" d="M175,570.27c-15.46,0-29.69,0-43.92,0a6.82,6.82,0,0,1-5.44-2.48q-28.87-30.36-57.88-60.57c-5.43-5.65-6-12.23-3.69-19s7.43-10.67,14.5-11.45c12.08-1.34,24.22-.27,36.34-.62,5-.14,8.9-2,11.12-6.59a13.4,13.4,0,0,0-.89-14,10.31,10.31,0,0,0-8.81-4.91c-20.39,0-40.77,0-61.16-.17-3.47,0-3,2-3,4.09q.12,40.32.21,80.66c0,9.66-.24,19.34.08,29,.15,4.6-1,6.45-5.92,6.21-8.42-.41-16.87-.29-25.3-.08-3.23.09-4.14-.81-4.12-4.08.14-19,0-38,0-56.94,0-29.7.11-59.4-.06-89.1,0-4.21.8-5.63,5.39-5.59,32.68.29,65.39.88,98.06.12,30.06-.69,43.83,20.74,43.24,43.16-.23,8.41.38,16.88-1.85,25.13-5,18.36-17,27.66-35.85,28-1.45,0-3.51-.91-4.25.78s1.36,2.61,2.35,3.7c16.07,17.67,33.2,34.35,48.85,52.41A27.11,27.11,0,0,1,175,570.27Z"/><path class="cls-1" d="M693.22,479v54.81c0,5.66-.54,11.21-2.8,16.48-5.24,12.26-14.26,19.49-27.8,19.82-14.75.35-29.52.11-44.27.24-22.57.19-35.62-14.91-35.65-36.73q0-42.17.07-84.33v-9.49c0-9.43-.06-9.37-9.58-10.08-1.93-.14-5,1-5.57-1.4a25.79,25.79,0,0,1,0-12.47c.37-1.37,2.18-.75,3.33-.75,11.59-.06,23.19-.18,34.78,0,9,.13,12.32,3.63,12.31,12.56q0,49.8-.12,99.61c0,7.57,0,7.63,7.4,7.65,9.31,0,18.63-.14,27.93,0,4,0,5.44-1.29,5.42-5.48-.16-36.19,0-72.39-.24-108.58,0-4.91,1.3-6.23,6.09-6,7.88.42,15.81.34,23.71.08,3.91-.13,5.07,1.06,5,5-.19,19.68-.09,39.36-.09,59Z"/><path class="cls-1" d="M292.62,478.58c0,17.74-.31,35.5.08,53.24.47,21.81-12,39.55-38.84,38.57-13-.47-26,.1-39-.28-18.4-.55-31.54-12.65-33.26-30.93-1.57-16.64-.19-33.36-.33-50-.2-22.85,0-45.7-.31-68.54-.06-4.82,1.48-6,5.94-5.82,8.08.31,16.17.27,24.25,0,4.1-.14,5.35,1.11,5.32,5.33q-.33,51.93-.14,103.86c0,12.33-2.16,10.76,10.87,10.86,7.56.06,15.11,0,22.67,0,6.81,0,7.59-.79,7.59-7.54,0-35.5.06-71-.21-106.49,0-5,1.47-6.21,6.16-6,8.06.35,16.17.32,24.24,0,4.11-.16,5.38,1.15,5.35,5.22-.16,19.51-.07,39-.07,58.52Z"/><path class="cls-2" d="M601.35,906.32c3.63,5.83,5.2,12.48,7.41,18.86.78,2.25-.23,3.63-2.51,4.32-3.69,1.1-7.3,2.47-11,3.48-2.58.71-3.36,1.9-2.57,4.54s1.09,5.49,1.67,8.23c.79,3.71-1,5.53-4.37,6.54s-5-.83-6-3.52-1.86-5.28-2.6-8-2.26-3.09-4.74-2.45c-5.75,1.5-11.53,2.93-17.35,4.15-2.46.51-3.11,1.58-2.75,4,.46,3.12.52,6.29.75,9.44s-.7,5-4.17,5.4-5.74-.32-6.6-4.11c-.77-3.37-.13-8-2.82-9.79s-6.64.75-10.08,1a3.21,3.21,0,0,0-1,.1c-4,.61-8.72.1-11.73,2.14-3.64,2.47-.53,7.43-.77,11.28-.25,4.12-1.82,6.23-5.8,6.62-4.47.43-5.16-2.89-5.63-6.06-1.52-10.09-1.46-10.1-11.31-9.8h-1.06c-4,.35-8.72-.47-11.87,1.37-3.47,2-.87,7-1.38,10.72s-1.87,5.77-5.86,5.86c-4.43.09-5.15-2.84-5.5-6.18-1.1-10.69-1.09-10.69-12.1-10.25-.52,0-1,.07-1.58.08-3.86.09-8.5-1.12-11.36.62-3.17,1.92-1.26,7-1.75,10.75-.52,3.92-2.58,5-6,4.94s-5.21-1.69-5.35-5.11c0-.35-.07-.7-.09-1-.71-11-.71-11-11.7-11.61h-.52c-3.85-.09-8.45-1.51-11.34.11-3.16,1.77-1.77,7-2.55,10.67-.72,3.37-2.34,5.42-6.1,5-3.36-.36-5.07-2.1-4.83-5.57v-1c-.28-11.73-.28-11.73-12.15-13.46-3.8-.55-8.17-2.47-11.24-1.21s-1.9,6.57-3,10-2.79,5.14-6.36,4.46-4.93-2.79-4.87-6.37c.05-3.75,3-8.23,0-11-2.42-2.24-6.82-2.35-10.33-3.42-.67-.2-1.32-.49-2-.67-9.73-2.57-9.72-2.56-13.26,7-1.2,3.26-2.59,6.34-7,5.07s-4.62-4.4-3.72-8.31c2.26-9.81,2.06-9.57-7.3-12.74-12-4.06-10.19-2.44-6.44-13,1.59-4.43,3.61-8.7,5.44-13,6,.64,11.26,3.77,16.94,5.54,29.48,9.19,59.68,14.3,90.38,17.2a382.11,382.11,0,0,0,50,1.74c34.68-1.27,68.85-6.07,102.22-16,7.4-2.21,14.77-4.5,22.07-7C597.55,906.26,599.38,905.62,601.35,906.32Z"/><path class="cls-3" d="M853.43,692.25c7.53,2.85,15.49,4,23.27,5.87q3.07.74,6.11,1.62c2.85.83,3.82,3,3.46,5.69s-2,4.61-4.84,4.61c-3.86,0-7.71-.35-11.57-.5s-6.77,1.1-8.3,5c-1,2.43-2.32,4.71-3.52,7-3.44,6.66-3.44,6.65,3.57,9.63,4.34,1.85,8.72,3.61,13,5.67,2.54,1.24,5.21,2.91,3.56,6.47-1.52,3.29-3.81,4.4-7.67,3.08-5.58-1.91-11-4.51-17.11-4.78-3.82-.17-6.13,1.32-8.25,4.33-3.81,5.45-6.22,11.57-9.09,17.48-1,2-1.82,4.7-5.38,3-1.47-.69-2.76,1.15-3.77,2.36-3.69,4.45-7.3,9-11,13.37-1.34,1.57-2,3.21-.24,4.51,3.52,2.56,1.26,4.56-.09,7-1.81,3.3-3.74,2-6,.74-2.47-1.37-4.37-.12-6,1.67-3.33,3.61-6.66,7.21-10,10.85a3.9,3.9,0,0,0-.73,4.72,4.47,4.47,0,0,1-2.32,5.88,4.34,4.34,0,0,1-2.41.33,4.77,4.77,0,0,0-4.62,1.63c-5,4.91-10,9.9-15.07,14.69-1.92,1.8-1.74,3.05,0,4.76,4,3.92,7.79,8.05,11.81,11.94,3,2.87,3.33,5.53.24,8.52s-5.61,1.79-8.06-.87c-3.21-3.48-6.57-6.83-9.66-10.42-2-2.36-3.81-2.59-6.18-.57-4.14,3.52-9.32,6.22-12.44,10.46-8.57,11.65-21.8,16.81-32.87,24.92-3.1,2.27-3.63,3.53-1.46,6.47,1.41,1.92,3,4,2.09,6.76s-3.25,4.09-5.8,5-3.87-1.09-5.2-2.69a22.91,22.91,0,0,1-2.68-3.88c-1.29-2.4-2.37-3.11-5.23-1.45-13.46,7.83-26.92,15.71-41.23,21.94-4.44,1.93-2.21,4.66-1.1,7.29,2.5,6,1.34,8.74-4.63,11-3.43,1.27-6.22.89-7.65-2.93-3.44-9.17-7.77-18-10.58-27.4,1.89-3.12,5.3-4,8.28-5.3,35.48-15.8,68.63-35.45,98.67-60.12,8.26-6.79,16.26-13.91,24.07-21.26a461.15,461.15,0,0,0,49-53.52,378.26,378.26,0,0,0,40.4-64C849.46,696.36,849.69,692.82,853.43,692.25Z"/><path class="cls-4" d="M289.08,902.32c-3.64,9.08-7.3,18.16-10.91,27.25-1.55,3.9-4.09,5.42-8.19,3.77s-6.55-3.59-5.18-8.68c.71-2.6,4.73-5,1.72-7.9-2.06-2-5.12-3-7.74-4.36-11.4-6.16-23.38-11.31-34-18.76-3.39-2.37-4.82-1.2-7,1.67-2,2.68-3.29,7.16-8.28,5.75-5.85-1.64-7.42-5.7-3.47-10.77,2.58-3.33,1.92-4.91-1.23-6.91-10-6.38-19.81-13.23-30.08-19.21-2.84-1.66-.65-4.11-2.58-5.52-4.93-3.61-9.71-7.43-14.5-11.24-2-1.61-3.47-.76-5,.78q-5.14,5.26-10.38,10.46c-2.56,2.55-5.32,3.52-8.23.58s-2.38-5.87.52-8.64c3.8-3.64,7.46-7.42,11.28-11,1.83-1.74,2.43-3,.14-5-5.09-4.54-9.93-9.37-14.89-14.07a10.21,10.21,0,0,0-3.54-1.9c-3.29-1.3-6.73-2.93-5.46-7.76.43-1.62-12.65-16.58-14.3-16.37a11,11,0,0,0-3.81,1.6c-5.07,2.87-9.32,6.83-13.65,10.66-2.2,1.94-4.51,3.65-7.54,2.34a5.88,5.88,0,0,1-3.65-5.39c-.13-3.4,2.4-5.2,4.92-6.16,5.66-2.13,9.58-6.3,13.77-10.28,2-1.86,2-3.48.36-5.4-.23-.26-.41-.56-.65-.82-4-4.4-6.61-11.48-11.89-12.92-5.1-1.39-9.91,4.65-15,7.2a51.45,51.45,0,0,1-5.75,2.53c-2.83,1-4.76-.34-6.08-2.73A4.89,4.89,0,0,1,60,768.5c2-1.8,4.58-2.52,7.08-3.31,1.34-.43,3-.41,4-1.25,2.79-2.56,8.44-3.68,7.55-8.25C77,747.61,69.16,741.85,63,743.23c-4.43,1-8.76,2.46-13.1,3.82-3.39,1.08-5.92.26-7.24-3.14s.53-5.17,3.41-6.56c10.88-5.27,22-9.92,33.32-14.2,2.54-.66,2.75,1.67,3.54,3a435,435,0,0,0,55.53,72.6,423,423,0,0,0,126.6,91.91c7,3.29,13.8,6.92,21,9.67A5.06,5.06,0,0,1,289.08,902.32Z"/><path class="cls-5" d="M853.43,692.25l-11,20.23c-25.49,47-60.37,86.23-100.75,120.89-32.19,27.63-68.15,49.12-106.82,66.28-2.39,1.06-4.75,2.21-7.13,3.32-1.35-3-2.51-6.17-4.11-9.07-2.25-4.07-1.54-6.24,3-8.22a415.87,415.87,0,0,0,77.31-43.51,452.69,452.69,0,0,0,83.59-77.35,394.22,394.22,0,0,0,75.86-141.06c1.06-3.52,1.83-7.13,2.72-10.7,1.54-6.19,3.88-7.77,9.67-6.51,5,1.08,6,3,4.75,9.53-1.16,6-2.53,12-3.81,18a12.26,12.26,0,0,1-.74,6.2,386.11,386.11,0,0,1-13.7,37c-.78,1.82-1.63,3.51-3.51,4.42Z"/><path class="cls-1" d="M661.58,85.6c-8,13.71-4.51,11.61-17.43,5.28-34.64-16.95-70.54-30-108.74-36.32-7.28-1.2-7.16-1.17-8,6.36s-1.8,15-3,22.43c-.91,5.78-3.43,7.47-9.13,6.73-7.49-1-9.27-2.94-9.08-9.21.1-3.11,2.56-7.15.6-8.92s-6.26-1.43-9.54-1.86a295.09,295.09,0,0,0-55.19-1.69c-4,.23-5.19-.83-5.21-4.75-.06-8.42-.3-16.86-1-25.25-.34-4.2.86-5.36,5-5.44a499.86,499.86,0,0,1,74.08,3.82A404.51,404.51,0,0,1,623.3,66a28.29,28.29,0,0,0,3.52,1,16.37,16.37,0,0,1,6,1.42c8.36,3.5,16.35,7.8,24.61,11.52C659.74,80.91,662.63,82,661.58,85.6Z"/><path class="cls-6" d="M840.42,611.91a214.16,214.16,0,0,1-7.62,29.17,343.15,343.15,0,0,1-61.38,110.64A418.27,418.27,0,0,1,617.59,868.19c-5,2.22-6.19.12-8-3.61-2-4-2.5-6.77,2.56-8.91a325,325,0,0,0,49.37-25.8c68.11-43.78,121.12-100.64,152.24-176.36,5.54-13.48,10.22-27.28,12.92-41.6,1.17-6.22,7.22-7,11.35-4.66A4.39,4.39,0,0,1,840.42,611.91Z"/><path class="cls-7" d="M601.35,906.32c-20.06,8-40.9,13.28-62,17.59a397.6,397.6,0,0,1-100,7.35c-34.51-1.77-68.68-6.65-101.89-16.67-8-2.41-16.36-4-23.34-9.1,4.64-13.92,4.65-13.94,18.3-9.7a422.57,422.57,0,0,0,180.09,15.63c27.06-3.41,53.37-10.3,79.19-19,3.41-1.15,4.44-.37,5.74,2.6C599.09,898.72,600,902.57,601.35,906.32Z"/><path class="cls-8" d="M289.08,902.32c-11.85-3.46-22.54-9.6-33.52-15a391.38,391.38,0,0,1-63.95-39.5c-39.56-29.9-73.42-65.17-100.55-106.76-3.91-6-7.75-12-11.62-18-1.85-3.76-3.57-7.6-5.59-11.28-1.48-2.71-1-4.33,1.63-6,7.87-5,8.9-4.9,13.6,3.15a419.06,419.06,0,0,0,45.34,63.8c39.64,45.63,86.61,81.61,141.63,106.9,5.1,2.34,10,5.06,15.24,7.11,3.5,1.38,3.39,3.27,2.11,6C291.9,895.92,290.52,899.13,289.08,902.32Z"/><path class="cls-9" d="M63.63,240.82c19.79,12,39.53,24.14,59.41,36,3,1.78,2.69,3.17,1.29,5.76-11.59,21.52-21.1,43.92-27.55,67.53-1.89,6.92-3.21,14-4.61,21.06-.73,3.65-2.83,5.49-6.4,5.83-6,.57-8.64-2.66-7.19-9.23a354.14,354.14,0,0,1,12-43A283.39,283.39,0,0,1,105.9,289c1.49-2.88.68-4-1.65-5.31-4.9-2.73-9.83-5.43-14.57-8.41-3.06-1.94-4.49-1.42-6.18,1.87a371.49,371.49,0,0,0-26,66,264.31,264.31,0,0,0-6.6,27.6,7.5,7.5,0,0,1-8.35,6.54,6.54,6.54,0,0,1-1.38-.3c-4.39-1.17-5.18-4-4.32-8.47A372.82,372.82,0,0,1,72.9,265.18c1.19-2.3,1.06-3.3-1-4.54-4.92-3-9.77-6.11-14.66-9.18C56.66,246,59.29,241.64,63.63,240.82Z"/><path class="cls-5" d="M745.7,326.12c-12.35,9.73-23.62,7.44-30.69-6-3.92-7.44-7.5-15.06-11.32-22.55-1.93-3.78-1.46-6.9,2.4-8.88s6.29.17,8,3.55l12,24.58c2,4.16,5.08,5.51,9.48,3.43,4.95-2.35,5.63-3.86,3.19-8.9-4.12-8.53-8.38-17-12.52-25.5-1.76-3.64-4-7.47,1.1-10.38,3.74-2.13,6.29-.7,9.36,5.49,8.65,17.44,17.19,34.94,25.82,52.39,1.71,3.46,3.59,6.83,5.49,10.19,1.69,3,2.62,5.92,1.32,9.48-1.87,5.11,2,7.66,5.36,10.24,2.86,2.23,5.72,1.35,8.18-.69C786,360,788,356.66,786.3,352.4c-5.33-13.17-11.8-25.82-18.07-38.55q-10.34-21-20.93-41.83c-1.84-3.62-3-7.11,1.42-9.46,4-2.12,6.72.15,8.53,3.6,14.08,26.88,28.32,53.69,39.38,82,4.82,12.34-2.48,24.84-15.31,27.16-7.67,1.38-13.79-1.71-18.05-8.05-1.67-2.48-2.45-3-5.41-1.26-10.72,6.42-22.69,2.15-26.14-8.8a11.73,11.73,0,0,1,1.66-10.51c1.63-2.47,4.12-2.53,6.56-1.47,2.15.94,4.13,2.25,3.25,5.16s-1.36,5.83,1.93,7.29a7.08,7.08,0,0,0,8.31-1.44c2.27-2.32,5.15-4.59,3.13-8.58C753,340.64,749.47,333.6,745.7,326.12Z"/><path class="cls-10" d="M308.11,860.82c-1.25,2.44-2.26,5.86-4.44,8.18-1.61,1.71-4.3-.37-6.29-1.26-50.49-22.57-95.93-52.41-134-93a413.23,413.23,0,0,1-57.48-78.39c-3.28-5.76-2.78-6.52,2.72-9.77,4.27-2.52,6.65-1.7,9.14,2.67,25.74,45.2,58.25,84.65,99.55,116.6,25.59,19.76,53.35,35.77,82.59,49.28,2.07,1,4.11,2,6.14,3C307,858.56,308.18,858.74,308.11,860.82Z"/><path class="cls-1" d="M349.26,46.13c2.24,8.78,4.18,17.65,6.82,26.3,1.55,5.07-.29,7-4.8,8.3a426.53,426.53,0,0,0-51.91,18.71,364,364,0,0,0-79,46.91c-6.85,5.35-6.94,5.24-13.33-.79-4.93-4.67-5.1-4.87.48-9.37a393.57,393.57,0,0,1,76.52-48c9-4.34,18.06-8.58,27.33-12.26,3.29-1.31,2.91-2.55,1.94-4.93-1.65-4-3.41-8.07-4.19-12.42,4-3.44,8.94-4.62,13.81-6.07,6.73-2,13.59-3.56,20.21-5.92C345.12,45.92,347.14,44.92,349.26,46.13Z"/><path class="cls-11" d="M53.15,887.27c4,.47,5.54,0,4.53-5.08-1.35-6.87,2-12.83,7.56-17.26,5.87-4.71,12.48-6.45,19.66-3.72,11.33,4.31,16.9,16.49,12.57,26.9-4.75,11.43-16.39,15.74-28.35,10.5-6.18-2.7-7.12-2.21-6.59,4.44s.59,13.25-3,20.31H112.1c2.16.86,4.43.37,6.64.37a8.92,8.92,0,0,1,6.16,2.21c1.28,1.13,3.28,2.13,3.06,3.91-.31,2.46-3,.56-4.28,1.66-29,.06-57.95.18-86.93.13a15.31,15.31,0,0,1-15.4-14.27c-.43-4.53-.31-9.12-.3-13.68.05-20.72.07-41.44.24-62.17C21.4,828.68,28.75,821.87,42,822c12,.08,19.58,7.77,19.64,19.93,0,3.5-.2,7-.31,10.52-1.66,1.2-3.72.75-5.54,1.33-2.13.69-2.11-1.12-2.58-2.34-.07-3.5-.07-7-.24-10.51-.31-6.56-4.81-10.33-12.1-10.22-6.92.11-10.93,4-11,10.6q-.41,33.38-.82,66.76c-.11,9.57,2.87,14.45,9.27,15.15,7.84.84,14.41-3.64,16.17-11,2.08-8.71-1.17-14.59-9.69-17.53-1.87-.78-5.13,0-4.65-3.56.39-2.92,2.07-4.83,5.29-4.69C48,886.48,50.74,885.72,53.15,887.27Z"/><path class="cls-12" d="M218,61.82c4.08,0,5.89,2.44,7.71,4.84,2.33,3,4.13,7.77,7.12,8.72s6.42-3.39,9.75-5.24c8-4.43,16-8.83,24.43-12.24,3.93-1.59,4.75-3.51,2.35-7.06a59.41,59.41,0,0,1-3.62-7c-1.86-3.67-.9-6.45,2.73-8.28s6.66-1.9,9,2c4.55,7.56,7.06,16,10.75,24,1.24,2.67-.9,3.17-2.66,4-13.69,6.7-27.54,13.1-40.74,20.74a452.83,452.83,0,0,0-78.21,57.52c-6,5.47-6,5.55-12.33.18-3.08-2.59-6.17-5.19-9.12-7.93-1.49-1.39-2.4-3.23-.64-5.08a3.24,3.24,0,0,1,4.56-.42,3.53,3.53,0,0,1,.56.6c3.91,4.87,6.73,2.57,10.09-.75,4.35-4.32,9-8.32,13.77-12.22,2.14-1.77,1.82-2.86.06-4.56-2.65-2.54-5-5.42-7.63-8-3.12-3-2.17-5.58.46-8s5.37-4.5,8.7-1.59a124.73,124.73,0,0,1,9.3,9.24c2,2.21,3.7,3,5.94.32a19,19,0,0,1,3.73-2.88c2.86-2,4.5-3.82.52-6.57-2.7-1.88-1-4,.59-5.79,1.89-2.16,3.77-1.76,5.15.44,2.3,3.69,4.93,3.43,8,1.13s6.19-4.6,9.39-6.75c2.36-1.59,2.23-3.12.55-5.12-1.92-2.27-3.67-4.68-5.45-7.06-1.43-1.92-3.64-3.79-2-6.46A9.58,9.58,0,0,1,218,61.82Z"/><path class="cls-10" d="M457,249.27c18.41,1.29,31.76,10.16,39.71,26.78,2.09,4.38,4.32,7.89,8.79,10.46,7.35,4.23,7.27,11.1-.17,15.78-4.3,2.7-6.7,6.08-8.75,10.56-7.78,17-21.73,25.86-40.07,25.7-18.74-.16-32.74-9.39-40.5-26.86a21.17,21.17,0,0,0-7.61-9.57c-8.69-5.94-8.48-11.44.64-16.6,4.49-2.55,5.77-6.84,7.8-10.81C425.17,258.29,438.9,250.4,457,249.27Z"/><path class="cls-6" d="M677.76,264.29c-28.82-.25-51.54-23.76-51.19-53,.33-27.38,23.45-49.73,51.15-49.42,28.2.31,51.26,23.61,51.08,51.62S705.55,264.53,677.76,264.29Z"/><path class="cls-1" d="M343.9,570.22c-7.19,0-14.39-.14-21.58.07-3.06.1-3.86-1-3.83-3.87q.12-13.93-.22-27.89c-.08-3,.88-3.93,3.81-4.08,3.6-.17,8.49,1.68,10.44-1.13,1.74-2.51.59-7.08.6-10.74,0-4.91,0-9.83-.2-14.74-.08-2.43.67-3.42,3.27-3.39,9.12.12,18.25.14,27.37,0,2.79-.06,3.14,1.17,3.1,3.45-.13,7.37.1,14.75-.23,22.11-.18,3.79,1.23,4.65,4.73,4.72,8.51.17,8.52.34,8.58,8.64q.06,6.32,0,12.63c0,8.94-4.25,13.67-13.22,14.06-7.54.34-15.09.07-22.64.07Z"/><path class="cls-1" d="M313.13,450.82c4.43-8.41,6.53-16.63,6-25.38-.14-2.29,1.38-2.28,3.07-2.51,3.7-.52,8.72,1.77,10.79-1.43,1.68-2.6.37-7.15.37-10.83,0-6.15.07-12.3-.1-18.45-.07-2.51.8-3.46,3.29-3.43,10.54.11,21.08.13,31.62.16,2,0,3.37.44,3.34,2.9-.06,5.79.28,11.6,0,17.37s-3.42,10.06-9.82,13.86c6.32,0,10.94.06,15.57,0,2.12,0,3.08.52,3.11,2.94.07,7,.43,14.05.69,21.07.08,2,.15,3.8-2.82,3.79C356.83,450.75,335.45,450.82,313.13,450.82Z"/><path class="cls-13" d="M458,672.87H597.14c3.85,0,7.7.51,11.56.71,2.63.14,4.64,1.66,5,3.93.38,2.8-2.42,3-4.42,3.3-9,1.5-18.16,1.66-27.3,1.65l-207.12-.25c-16.86,0-33.72.19-50.59.23-2.8,0-5.63-.71-8.39-.46-6.07.57-5.17-5-6.88-7.92-.91-1.55,1.84-1.34,3-1.35,8.78,0,17.57.13,26.35.13Q398.17,672.89,458,672.87Z"/><path class="cls-5" d="M839.77,230.56c-13.13,8.4-26.18,16.9-39.42,25.11-3.11,1.93-4.09,3-1.79,6.61a324.27,324.27,0,0,1,42.87,104c1.8,8-.78,11.75-7.41,10.8-4.53-.65-5.21-4.36-5.82-7.74a241.62,241.62,0,0,0-10-36.41,293.8,293.8,0,0,0-39-75.28c-2.29-3.19-3.69-5.81.71-8.48,17.83-10.79,35.58-21.71,53.36-32.58,2.24,2.56,5.22,4.35,7.3,7.08S842.9,228.57,839.77,230.56Z"/><path class="cls-9" d="M497.46,825.34c10.77,8.59,20.75,16.87,31.1,24.65,4.45,3.34,5.36,7.45,5.08,12.38-.15,2.63-.72,4.86-4,5.12s-6.61-.75-6.88-4.09c-.46-5.63-4.3-8-8-10.91q-14.28-11.19-28.22-22.76c-2.08-1.74-4.16-1.56-6.36-1.56-21.43,0-42.86,0-64.28.17-15,.13-26.52-6.92-36.29-17.4-4.91-5.27-6.47-11.91-6.09-19,.12-2.24-.44-5.11,3.2-4.55,3.08.48,8.37-1.41,8.15,3.91-.49,12,7.31,17.37,16.13,22.4a22.59,22.59,0,0,0,11.55,3c24.59,0,49.18.13,73.77,0,13.23-.07,26.49-11.82,27.61-24.5.36-4.12,2.88-3.73,5.45-3.78,2.79-.06,5.9-.52,6.06,3.8.31,8.35-2.24,15.56-8.45,21.28C511.46,818.52,504.9,821.82,497.46,825.34Z"/><path class="cls-14" d="M298.9,765v10.53c0,1.23.39,3-.26,3.61-5.09,5.22-1.46,9.37,1,14.15a16.4,16.4,0,0,1-4.37,20.87c-5.71,4.56-14.28,4.54-20.54,0a16.75,16.75,0,0,1-5.66-20.17c2.82-6.66,8.33-10.36,15.48-10.75,3.69-.21,4.87-1.32,4.76-4.92-.21-7.37-.16-14.75,0-22.12a6,6,0,0,0-2.61-5.3c-7.3-5.77-15.33-10.45-23-15.65-1.95-1.32-3.33-1-5.16.23-7,4.89-14.14,9.71-21.33,14.4-3.56,2.32-5.45,5.14-4.86,9.58a25.33,25.33,0,0,1,0,7.87c-1.32,7.05,2.34,11,7.8,14.34,5.82,3.56,11.33,7.64,17.22,11.08,4,2.31,3.14,5.4,2.33,8.65-.54,2.15-2.18,1.46-3.35.79a264.82,264.82,0,0,1-31-20.68c-1.91-1.48-2-3.62-2.06-5.71,0-7.55.07-15.1,0-22.65a8.15,8.15,0,0,1,4-7.42c10.11-6.64,20.13-13.4,30.14-20.19,2.85-1.93,5.44-1.82,8.23.12,9,6.29,18.08,12.62,27.27,18.69,4.36,2.88,6.73,6.3,6,11.75-.42,2.93-.07,6-.07,9Z"/><path class="cls-15" d="M215.17,703.82c.83-3.12-.32-4.53-3.59-4.65-4.15-.16-8,.09-11.08,3.43a6.69,6.69,0,0,1-2.39,2c-8.85,2.93-8,10-7.52,17,.18,2.44.53,5-1.39,7a5.78,5.78,0,0,1-6.36,1.31A4.82,4.82,0,0,1,179.6,725c0-3.68,0-7.38.15-11.06.12-2.35-.76-3-3-2.93-3.5.18-7,.12-10.53.11-3.69,0-6.37-1.76-6.24-5.52.12-3.51,2.72-5,6.28-4.75,1.93.14,3.87.08,5.8.09,8.06,0,7.93,0,7.72-7.86-.07-2.58-.87-3.27-3.34-3.21-6,.16-11.95-.15-17.9.16a10.06,10.06,0,0,1-9.46-4.44q-8.15-11.3-16.39-22.53c-2-2.7-2.95-5.42.4-7.69,3.19-2.16,6.43-1.93,8.83,1.26,3.9,5.18,7.49,10.59,11.38,15.78,1.94,2.61,3.15,6.65,6.62,7,6.08.67,12.27.34,18.4.3,1.49,0,1.24-1.41,1.26-2.41,0-2.28-.13-4.59.13-6.84.4-3.55-.33-5.68-4.54-5.45s-4.48-3-4.54-6.11c-.06-3.38,1.83-4.53,5-4.57,16.82-.25,14.65-1,14.71,13.46v28.28c1.75,1,2.46-.49,3.17-1.21,5.37-5.43,11.94-6.65,19.26-6.24,10.5.6,15.39,6.82,13.12,17.25C220.9,711,219,710.59,215.17,703.82Z"/><path class="cls-16" d="M597.64,694.73c-10.51,10.48-21.75,17.35-33.3,23.52a220.68,220.68,0,0,1-56.57,20.87c-3.39.75-5.55.2-7.85-2.31-19.63-21.36-14.94-12.15-15.74-42.25-.08-3,1.11-4.16,4-3.74a9.37,9.37,0,0,0,1.06,0c8.84.38,7.8-1.31,7.91,7.85a109.32,109.32,0,0,1-.16,11.59c-.67,6.87,1.93,12.13,6.66,16.92a6,6,0,0,0,6.53,1.81,225.82,225.82,0,0,0,53.21-20.92,13.64,13.64,0,0,0,1.32-.87c1.46-1,3-2.11,2.49-4.19s-2.63-1.45-4-1.47c-11.42-.13-22.83-.12-34.25-.16a56.08,56.08,0,0,1-5.8-.11c-3.27-.37-5.91-1.79-5.62-5.57.27-3.41,2.64-4.54,5.91-4.54,17,0,34.09-.09,51.13-.13,1,0,2.91.11,2.94.36,1.07,7.68,6.48,2.53,9.76,3.2C590.09,695.19,593.13,694.73,597.64,694.73Z"/><path class="cls-5" d="M860.84,251.45c-3.36,2.18-6.55,4.71-10.12,6.44-4.26,2.07-4.15,4.26-2.11,8.12a339.47,339.47,0,0,1,27.47,69.89c2.92,10.84,5.12,21.84,7.29,32.86.84,4.29-.24,6.9-4.33,8.08-4.51,1.28-8.1-.64-9.25-5.29-2-7.81-3.38-15.74-5.31-23.56-7.31-29.59-18.87-57.53-33-84.46-3.55-6.75-3.33-7.1,3.32-11s13.66-7.86,20.5-11.78C859.78,242.92,860.54,247.06,860.84,251.45Z"/><path class="cls-10" d="M672,108.13c2.26,1.2,4.66,2.29,6.87,3.68a347.26,347.26,0,0,1,69.64,57.39,336.07,336.07,0,0,1,30,36.6c2.23,3.18,3.52,5.95-.41,9-4.1,3.17-6.67,1.24-9.19-2a437.93,437.93,0,0,0-28.66-33.59C719.7,157.55,696,140,670.42,124.73a37.47,37.47,0,0,1-3.53-2.3c-2-1.49-4.32-3.09-2.85-6C665.76,113,667.9,109.82,672,108.13Z"/><path class="cls-17" d="M703.19,62.51c3.74-.23,6.34,2.12,8.09,4.88,1.47,2.32-.51,4.58-2.07,6.54a34.33,34.33,0,0,0-2.61,3.93c-1.41,2.42-5.71,4.75-3.5,7.33,3.2,3.72,7.79,6.43,12.18,8.86,1.72,1,2.74-2.2,4.21-3.33s2.5-3.24,4.65-1c1.71,1.83,3.2,3.93.54,5.74-4.91,3.33-2.14,5.38.81,7.74,6.78,5.4,6.77,5.44,12.33-1.17,1.24-1.47,2.27-3.12,3.57-4.53,3.92-4.25,7.08-4.28,11.22-.28,2.81,2.72,3.66,5.43.34,8.42-1,.93-1.83,2.12-2.8,3.13-7.2,7.47-7.16,7.41.6,13.9a100,100,0,0,1,9.25,8.57c2.27,2.46,3.89,3.07,6.84.74,1.85-1.46,4-5.84,7.13-2.15,2.84,3.41-.6,5.63-2.87,7.78-2.67,2.53-5.48,4.94-8,7.63-2.69,2.88-4.73,2.36-7.49-.11-15.41-13.77-31-27.36-48.14-39-6.94-4.72-13.86-9.46-20.87-14.07-2.3-1.51-3-2.85-1.36-5.46,4.5-7.09,8.78-14.33,13.07-21.55A4.83,4.83,0,0,1,703.19,62.51Z"/><path class="cls-5" d="M41.32,634.2c-1.13-5.82-2.25-11.65-3.42-17.46-1.38-6.84-.16-9.33,5.12-10.29s7.32.69,8.69,7.69c3,15.36,7.65,30.25,12.83,45,1.29,3.66,2.65,4.88,6.62,2.73A121.77,121.77,0,0,1,88,654.55c3.63-1.32,4.35-2.68,2.77-6.37-2.6-6.08-.44-9.26,5.63-9.79,3.18-.27,5,1.27,6.12,3.89,2.12,5,4,10.11,6.14,15.11,1,2.42-.08,3.57-2,4.54C92.42,669,77.77,675.31,63,681.41c-1.35.55-3.09.14-4.65.18-3.94-1.77-3.67-6.12-5.56-9.14a37.17,37.17,0,0,1-2.16-5.37c-3-8.18-6.29-16.25-8.51-24.69C41.41,639.7,40.42,637,41.32,634.2Z"/><path class="cls-14" d="M461.16,372.47c-35.29,0-64.6-21.61-73.19-51.53a17.67,17.67,0,0,1-.69-5.69c.1-2.55,1.71-3.73,4-4.19s3.48.94,4.18,3c3.14,9.15,7.11,17.74,13.12,25.56,24.43,31.75,75.49,30.79,98.71-2a60.07,60.07,0,0,0,10-21.27,24.54,24.54,0,0,1,1-3c.77-2,1.69-4.13,4.39-3.63s4.13,2.32,4.1,5.24c-.06,7.13-3.31,13.31-6.48,19.26C507,359,485.43,370.64,461.16,372.47Z"/><path class="cls-6" d="M632.78,807.47a28.17,28.17,0,0,1-28.44-27.9c0-.29,0-.57,0-.86.18-15.35,13.53-28.26,29-28s28,13.5,27.92,29.11A28.08,28.08,0,0,1,632.78,807.47Z"/><path class="cls-18" d="M.4,139.72c0-28.43-.27-56.87,0-85.3.11-13.61,11.22-23.5,25.81-23.55,20.19-.07,40.37.1,60.56.18,4.22,0,8.43.11,12.64.17,2.15.92,4.49.31,6.71.91s3.66,1.52,3.6,3.82c-.08,2.48-1.89,3-4,3.09-1.73.05-3.51-.35-5.2.37q-35.85.08-71.66.18c-14.76,0-19.9,5.23-19.95,20Q8.78,97,8.7,134.41C6.22,140.82,5.36,141.42.4,139.72Z"/><path class="cls-19" d="M785.68,641.42c-7.72.14-15.44.42-23.16.36-3.26,0-4.52,1.17-4.13,4.3v.53c3.82,21.85-13.43,30.79-26.12,42.48-1.47,1.36-3.66,1.07-5.57,1.07H645.06c-1.32,0-3.22.69-3.86-.77-.88-2,1.62-2.26,2.53-3.36,3.61-4.41,8.24-5.52,13.93-5.41,22.12.39,44.24.23,66.36.4a10.76,10.76,0,0,0,8-3.22c1.51-1.46,2.94-3,4.56-4.36,8.87-7.3,14-15.81,12.4-28.14-1.14-8.8,3.37-12.52,12.53-12.73,7.72-.18,15.44-.26,23.16-.39C787.14,635,785.9,638.28,785.68,641.42Z"/><path class="cls-20" d="M629.63,349.73c8.76.26,19.68-1,30.39,1.88,14.88,3.95,23.53,14.34,29.23,27.9,1.41,3.36-.93,4.33-3.15,5.45s-4.35,1.13-5.71-1.53a84.4,84.4,0,0,0-4.46-8.34c-6.56-9.87-16-15.23-27.71-15.61-13-.42-26-.14-39,.12-11,.22-20.42,5-28.56,11.89-10.77,9.17-23.2,11.77-36.78,10.72-2.19-.16-5.18-.13-5-3.33.19-2.85,2-6.17,5-5.83,16.26,1.82,27.91-7.07,39.82-16,7.07-5.28,15.52-7.2,24.29-7.35C614.55,349.64,621,349.73,629.63,349.73Z"/><path class="cls-21" d="M89.9,952.72c-20.71.33-41.42.87-62.14.93-14,.05-23.07-6.85-26.75-19.27-1-3.44-.92-7-.93-10.44Q0,883.64,0,843.34a31.18,31.18,0,0,1,.14-4.21,4.3,4.3,0,0,1,4.2-4c2.56-.2,3.77,1.68,4.23,3.87a24,24,0,0,1,.19,4.72V928c0,9.79,5.41,15.69,14.61,16.43,4.16.91,8.38.36,12.57.38,17.91.08,35.81,0,53.72,0a20,20,0,0,1,7.75,1.09,3.49,3.49,0,0,1,2.36,3.74c-.24,1.77-1.82,1.89-3.26,2C94.34,951.82,92,951.37,89.9,952.72Z"/><path class="cls-1" d="M418.74,52.46c.21,4.2.3,8.41.66,12.6.29,3.29-.28,5-4.26,5.32a272.08,272.08,0,0,0-34.82,4.75c-2.82.56-3.73-.58-4.15-3-1.64-9.47-3.21-19-5-28.39-.48-2.46.41-3,2.5-3.34,13.67-2.19,27.36-4.13,41.14-5.48,2.32-.23,3.09.54,3.16,2.82.16,4.9.54,9.8.84,14.7Z"/><path class="cls-22" d="M551.25,295.82c-.45,29.59-11.08,54.56-33.82,74-.66.57-1.36,1.1-2.06,1.62-2.1,1.51-4.32,1.87-6.15-.19s-.62-3.91.91-5.57c4.15-4.53,8.55-8.84,12.4-13.6a87.85,87.85,0,0,0-9.41-120.73c-1.17-1.06-2.2-2.27-3.38-3.31-2-1.73-2.88-3.54-.84-5.83s4-1.75,6.11-.38a69.74,69.74,0,0,1,19,18.63C545.56,257,551.62,275.4,551.25,295.82Z"/><path class="cls-1" d="M737.78,390H742c10.11.06,10.29.09,8.73,9.91-2.47,15.55-7.27,30.28-16,43.54a46.1,46.1,0,0,1-14.37,13.64c-1.66,1-3.63,1.9-5.36.34-2.14-1.91,0-3.42.84-5q5-8.94,10-17.86c1.42-2.52,1.08-3.55-2.14-3.79-9.16-.69-9.1-.81-5.74-9.53a101,101,0,0,0,6.27-27c.33-3.55,1.58-4.89,5.19-4.46a71.49,71.49,0,0,0,8.41.07Z"/><path class="cls-23" d="M858.76,681.69c6.43-15.2,12.81-30.42,17-46.44.12-.45.62-.81.93-1.22h19.49c2.64,0,5.21.29,7.47,2,3.77,2.81,3.62,6.35-.45,8.54-11.41,6.11-13.54,18.63-4.73,28.36,1.67,1.85,2.65,3.6,1.66,6.1s-2.92,2.7-5.13,2.82A253.38,253.38,0,0,1,858.76,681.69Z"/><path class="cls-24" d="M313.26,475.19H384.6c-1.32,6.1-3.27,11.63-7.16,16.27a14.49,14.49,0,0,1-12,5.41c-11.05-.14-22.11-.15-33.15.25a12.92,12.92,0,0,1-10.67-4.46C317.16,487.82,314.8,481.87,313.26,475.19Z"/><path class="cls-25" d="M720.47,748.14c-3.38,3.32-7.58,1.74-11.37,1.52-2.22-.13-1.32-2.87-1.36-4.48-.21-8.65-.17-8.68-9-8.69H598.13c-.88,0-1.76.08-2.63,0-2.21-.17-4.27-.68-4.68-3.31-.44-2.8,1.41-4.37,3.64-5a24.93,24.93,0,0,1,6.78-.63c33.35,0,66.71-.06,100.07.1,5.32,0,9.72-4.27,15.26-2.69,1.57.45,3.67-.39,4,2.17a5.42,5.42,0,0,1,1.49,4.79C720.71,737.22,721.66,742.82,720.47,748.14Z"/><path class="cls-5" d="M541.15,88.47c-.09-4.83,3.15-7.51,7.78-6.44,8.37,1.94,16.78,3.84,25,6.4,20.81,6.49,40.93,14.69,59.77,25.77a62.15,62.15,0,0,1,6.57,4.34c2.65,2,3.77,4.55,1.64,7.74s-4.72,3.83-8.11,2.06c-9.62-5-19.17-10.17-29.11-14.59-18.3-8.13-37.38-13.91-56.67-19C544.31,93.72,541.43,92.22,541.15,88.47Z"/><path class="cls-26" d="M680.9,713.62H621.33c-1.81,0-4.66,1-5.25-.94-.73-2.35,2.53-2.78,3.92-4.17,3.82-3.8,8.63-3.93,13.66-3.91,33.74.12,67.48.08,101.22.1,1,0,2.11,0,3.16-.07,10.75-.51,12.6-2.41,13-13.3.25-6.19,2-8,6.43-6.6,1.73.54,2.76,1.42,3,3.2,1.52,14.07-2.8,25.15-20,25.48-19.85.37-39.71.08-59.57.08Z"/><path class="cls-27" d="M381.75,236.35c3.27-.34,6,4.18,4.6,7.21-2.33,5.1-5.18,10-7.26,15.16C363.46,297.56,372.74,337,403.92,365c1.84,1.65,5,3.07,2.41,6.28-2.37,3-5.08,1.62-7.43-.1-15.39-11.28-25.73-26.27-31.37-44.35-9-29-5.9-56.83,8.64-83.44A23.56,23.56,0,0,1,381.75,236.35Z"/><path class="cls-5" d="M554.45,843.48V796.42c0-5.1.14-10.19.12-15.28,0-4.23,2.55-5.43,6.15-5.41s4.7,2.55,4.7,5.66c0,25-.09,49.9,0,74.85,0,4.2-2,6.16-6,6.29-4.2.13-5.45-2.47-5.38-6.09,0-1.73-.2-2.52-2.32-3.12-9.58-2.72-15.86-9.84-21.4-17.53a7.41,7.41,0,0,1,.21-8.93c1.68-2.21,4.15-2.5,6.69-1.69,1.93.62,3.81,1.82,3.88,3.89C541.36,837.15,548,839.18,554.45,843.48Z"/><path class="cls-28" d="M144,223a21.72,21.72,0,0,1-9.1-6.55c-2-2.49.54-4.67,1.88-6.48,14.25-19.2,29.65-37.39,48-52.87,5.21-4.4,12.18-1.87,13.77,4.71.59,2.44-1.23,3.5-2.56,4.78-12.74,12.36-25.1,25-36.2,38.92-3.84,4.8-7.55,9.68-11.38,14.48C147.36,221.33,146.23,222.75,144,223Z"/><path class="cls-15" d="M342.9,790.64c-2.15,8.33,1,14.82,10.15,19.82,8,4.4,7.71,12.44.69,18.65a62.39,62.39,0,0,1-4.9,4c-4.08,2.92-7.27,5.9-7,11.81.18,4.85-4.9,8-9.67,7.22a7.75,7.75,0,0,1-6.09-9.13,2.88,2.88,0,0,1,.09-.4c.27-1.14.84-2.85,1.65-3.11,5.35-1.73,4.16-6,4.16-9.86,0-17-.11-34-.15-51,0-2.86,0-5.75,3.55-6.8,4.09-1.23,7.22,1,7.5,5.38.13,2.1,0,4.21,0,6.32Z"/><path class="cls-29" d="M336.68,695.38c.13-3.39,1.6-4.63,5.24-4.55,14.73.32,29.48.34,44.22.33,3.89,0,7.45.5,7.3,5.26-.15,4.58-4,4.63-7.42,4.68-11,.17-22.11.27-33.16.55-1.68,0-4.17-.9-4.76,1.92-.53,2.54,1.07,3.73,3.13,4.79,14,7.23,28.08,14.31,43.41,18.4a22.29,22.29,0,0,1,3,.85c2.63,1.13,5.57,2.34,4.39,6-1.06,3.28-3.81,3-6.56,2.31-22.18-5.86-43.06-14.63-62-27.76C331,703,334.65,699.4,336.68,695.38Z"/><path class="cls-30" d="M148.1,312.93a28.06,28.06,0,0,1-3.89,0c-2.08-.33-5.55,2.81-5.88-2.15-.26-3.85-.33-7.17,5.38-7.23,6.55-.07,8.61-2.73,9.38-9.34.25-2.16-1-2.74-2.48-3.35-5.63-2.26-1.54-5.7-.85-8.52,1-4,2.9-1.3,4.42-.28,2.41,1.62,2.78.23,3.32-1.84,1.37-5.26,2.86-10.49,4.61-15.63.8-2.34,1.57-5.3,5.4-4.2s4.41,3.7,3.43,6.94c-3.27,10.82-6.66,21.61-10,32.45,6.74-1,7-1.32,6.25-7.53a8.33,8.33,0,0,1,.45-4.63c.77-1.71,1.8-3.06,3.69-3.41,2.19-.4,3.07,1.34,3.94,2.82,5.51,9.36,1.5,19.51-9.72,22.35-5.79,1.46-8.66,3.88-10.3,9.6-2.9,10.09-10.88,15.42-20.19,19.19-2.47,1-3.23-.15-3.81-1.89s-2.7-3.34.47-5.19c6.55-3.83,12.51-8.44,15.44-15.89C147.4,314.55,147.67,314,148.1,312.93Z"/><path class="cls-31" d="M211.69,193.38c3.43.23,7.08-.2,9.74,2.83,1,1.09,2.1,2.25,1,3.66-4.16,5.37,2.53,6.44,3.82,9.63.49,1.22,1.82.24,2.58-.49,1-1,2-1.94,2.94-3,2.45-2.73,6.31-5.25,6.87-8.35s-4.75-3.93-6.93-6.49c-5.31-6.24-4.51-14.77,2.24-20.38a15.41,15.41,0,0,1,21.55,2.42c5.12,6.5,4.92,15-1.08,21.65-7.15,7.91-14.56,15.61-22.09,23.17-5.22,5.25-9,4.61-12.92-1.76A24.14,24.14,0,0,1,217,211c-1.13-3.5-3.2-5.28-7-6.07-3.38-.71-9-.52-8.17-6C202.56,194.27,207,192.82,211.69,193.38Z"/><path class="cls-5" d="M576.79,149.51a15.08,15.08,0,0,1,3.29,0c9.5,2.4,17.36.5,23-8.16,1.43-2.21,3.65-2.15,3.86.72.8,10.88,7.77,16.33,16.84,20.17a9.94,9.94,0,0,1,1.76,1.4c-3,3.66-7.09,5.24-11.11,6.75-2.58,1-3.34,2.31-3.35,4.92a43.35,43.35,0,0,1-1.86,13.58c-3.52-2.76-6.86-5.17-10-7.86-2.75-2.39-5.47-3.13-9.07-2s-7.39,1.57-11.53,2.4a34.2,34.2,0,0,1,4.28-12.51c1.85-3.52,1.31-6-.82-9S577.46,153.82,576.79,149.51Z"/><path class="cls-32" d="M382.9,191.14c5.74.44,14.47-1.67,22.67,2.14,1,.44,2.2.68,2.78,1.43,5.3,6.74,11.49,4.35,17.94,2.2,19-6.33,38.18-6.47,57.5-1.69,2.64.65,6.23,1.29,5.53,4.87s-3.87,4.21-7.5,3.31c-21.15-5.22-41.76-3.23-61.67,5.4-3.91,1.7-6.77,1.07-9.49-1.53-6.4-6.12-14-8.09-22.68-7.69-8.23.37-16.49.12-24.74.2-2.9,0-5.62-.51-5.64-4s2.39-4.73,5.69-4.69C368.9,191.19,374.49,191.14,382.9,191.14Z"/><path class="cls-33" d="M453.55,774.82c-34-.41-66.93-5.93-98.1-20.18-2.15-1-4.3-1.91-4.47-4.58-.21-3.26,2.5-4.73,6.4-3.25,9.32,3.54,18.49,7.43,28.13,10.2,31.09,9,62.7,11.47,94.83,8.48,2.44-.22,4.9-.31,7.36-.37s4.14.7,4.33,3.46-1.42,3.58-3.83,3.91A266.06,266.06,0,0,1,453.55,774.82Z"/><path class="cls-5" d="M79.44,213.2c18.65,12.05,37.27,24.17,56,36.12,3.88,2.48,4.83,5.05,1.86,8.78a19.72,19.72,0,0,0-2.62,3.92c-1.5,3.27-3.47,3.2-6.19,1.44-10.72-6.94-21.59-13.64-32.23-20.64-8.6-5.65-17-11.59-25.5-17.4C72.48,220.49,74,215.43,79.44,213.2Z"/><path class="cls-34" d="M785.68,641.42c-2.44-2.85-.54-6.17-1-9.24.31-16.71,2.46-13.09-12-13.53-10.88-.33-21.78.06-32.67-.08-3.23,0-4.35,1.06-4.25,4.24.15,4.74,0,9.48-.14,14.22-.1,3.16-1.47,5.52-5,5.53s-5.51-2.22-5.48-5.67c0-6.84.17-13.69.66-20.52.33-4.7,3.45-7.33,8.06-7.37,17.39-.16,34.78-.23,52.17-.08,5.8,0,9,3.53,9.24,9.33.2,5.09.15,10.19.19,15.28C795.47,641.66,793.67,643.11,785.68,641.42Z"/><path class="cls-10" d="M558,124.74c-1.39,1.58-1.92,2.67-2.78,3.1-9.29,4.61-10.39,12.29-8.25,21.32.31,1.31.91,3.17-.24,4-1.53,1.08-3-.57-4-1.5-7.14-6.51-14.46-6.73-22.22-1.17-1.08.77-2.55,1-4.09,1.61-.89-4.16.37-7.89,1.29-11.46,1-4,.32-6.74-2.8-9.49-2.53-2.23-7.37-4.4-6.34-7.51.9-2.73,6.2-2.6,9.55-2.65,5.83-.08,8.1-3.7,10.18-8.14,1.07-2.3,2.18-5.7,4.75-5.61,2.15.07,3.17,3.48,3.89,5.73,1.88,5.87,5.83,8.7,11.8,9.44C551.55,122.75,554.34,123.82,558,124.74Z"/><path class="cls-35" d="M334.65,299.08c-.29-23.79,4.27-41.7,12-58.82,1.37-3,2.6-8.18,7.53-6.08,5.49,2.34,1.38,6.46.15,9.33-14.35,33.54-15,67,0,100.51a31.19,31.19,0,0,1,1.36,3.42c.82,2.43.61,4.54-2.08,5.7s-4-.39-5.15-2.31a104.68,104.68,0,0,1-10.56-27.37A120.64,120.64,0,0,1,334.65,299.08Z"/><path class="cls-36" d="M402.6,150c-3.14,0-5.81-1.59-8.17-3-5.47-3.35-10.12-2.84-14.93,1.13a16.19,16.19,0,0,1-7.54,3.4c-1.28-4.26.26-8.39,1-12.2.81-4.09-.7-6.27-3.34-8.5s-5-4.27-7.74-6.65a16.56,16.56,0,0,1,9.28-3c5.52-.32,8.5-3.31,10.25-8.12.18-.5.39-1,.59-1.46.81-2,1.63-4.62,3.51-4.91,2.2-.33,3.28,2.51,3.89,4.28,2.77,8.17,9.4,9.83,16.75,10.64,1.3.15,3.15-.15,3.75,1.38.74,1.88-1.14,3-2.24,3.67-8,4.49-7.92,11.13-5.47,18.64C402.67,146.69,403.35,148.26,402.6,150Z"/><path class="cls-1" d="M460.35,97.75C463.64,109.4,472.19,114,484,114.47c-2.32,4.42-5.7,6.69-8.48,9.4-1.89,1.84-2.44,3.33-1.76,5.92,1.09,4.18,1.58,8.51,2.45,13.47-2.74-1.08-4.92-1.46-6.51-2.65-6.95-5.17-13.59-3.9-20.33.35-1.42.9-2.89,2-4.88,2-.93-3.75.23-7.44,1.26-10.74,1.52-4.85.28-7.86-3.53-10.74-2.13-1.61-6.06-3.31-5.42-5.63.74-2.7,5-3.06,7.8-3.26,5.6-.38,8.87-3.22,11-8.1A15.08,15.08,0,0,1,460.35,97.75Z"/><path class="cls-37" d="M661.58,85.6c-.85-3.71-4.31-4.29-7-5.59-9.17-4.46-18.45-8.7-27.69-13,4.3-8.58,8.41-17.25,13-25.68,1.76-3.23,3.09-7.9,8.77-6.23,5.08,1.5,7.13,5.1,5.3,10-.43,1.13-1.1,2.18-1.6,3.29-3.44,7.59-3.44,7.59,3.42,11.87a28.75,28.75,0,0,1,4,2.45c4.06,3.58,7.59,4.17,10.63-1.21.58-1,1.91-2.11,3.08-1.47,1.75,1,.48,2.4,0,3.61A157.28,157.28,0,0,1,661.58,85.6Z"/><path class="cls-38" d="M451.14,790.53c12.65,0,25.3.11,38-.07,4.45-.06,7.54,1.52,7.43,6-.11,4.27-3.37,5.53-7.43,5.51q-38.22-.12-76.42,0c-4,0-6.46-1.64-6.49-5.8s2.45-5.71,6.49-5.67C425.49,790.6,438.32,790.53,451.14,790.53Z"/><path class="cls-39" d="M457.06,211.64a90.6,90.6,0,0,1,28.72,5.42,19.45,19.45,0,0,1,3.7,2,4.37,4.37,0,0,1,1.81,5.91v0c-1.23,2.75-3.44,2.5-5.77,1.56-7.19-2.87-14.52-5.11-22.33-5.54-25.3-1.38-44.82,8.77-59.1,29.45-1.7,2.46-3.28,5.58-7,3.26-3.89-2.44-2.6-5.69-.61-8.66,12.66-18.75,29.9-30.15,52.64-32.65C452.1,212,455.07,211.82,457.06,211.64Z"/><path class="cls-15" d="M456.36,894.82c-7,0-14-.26-21,.1-3.8.2-4.45-1.57-4.47-4.59-.11-13.43,9.67-25.11,22.26-26.51,13-1.46,25,7.61,28,21,.11.51.15,1,.23,1.56,1.46,8.5,1.46,8.51-7.08,8.53H456.36Z"/><path class="cls-40" d="M478.57,632.21c1.35-5.43,2.33-9.88,3.57-14.26.83-2.94,1.14-6.82,5.44-6.61,4,.2,4.56,3.84,5.4,6.86,1.24,4.44,2.37,8.92,3.93,14.82,1.67-6.41,2.88-11.42,4.3-16.37.79-2.75,1.11-6.29,5.61-5.11,4.23,1.11,3.53,4,2.63,7-2.1,7.23-4.17,14.47-6.09,21.75-.93,3.51-2.34,6.24-6.51,6.28S492,643,491,640.2c-1.27-3.75-2.06-7.65-4-11.44-1,4.4-2.18,8.78-3,13.22-.71,3.93-3.55,4.31-6.61,4.62-3.29.32-4.12-2-4.82-4.48-2.4-8.41-4.78-16.84-7.21-25.25-.69-2.4-.94-4.49,2.09-5.5s4.86,0,5.74,2.83C475,619.9,476.63,625.61,478.57,632.21Z"/><path class="cls-41" d="M349.26,46.13,309.17,58.6c-2.64-6.73-5.38-13.42-7.87-20.2-1.26-3.4-2.77-7.08,2.15-9.24,4.57-2,7.19.14,9.13,4,2.15,1.06,2.49,3.22,3.16,5.18,2,6.35,2.59,6.69,8.75,4.87,1.17-.35,2.35-.56,3.54-.81,4.92-1,5.36-1.76,4.43-7.2a37.67,37.67,0,0,1-2.06-11.38c-.8-8.07.29-9.62,6.4-9.8,2.48-.08,4.24.89,4.89,3C344.62,26.6,348,36.09,349.26,46.13Z"/><path class="cls-42" d="M851.9,59.39h-50a26.75,26.75,0,0,1-4.2-.21c-2.24-.36-3.23-1.87-3.32-4.08-.1-2.63,1.76-2.6,3.55-2.69,7.19-.33,14.38-.91,21.57-1q39.51-.25,79-.15c3.24,0,7.37-1,8.65,3.83.82,3.12.25,5-3.61,5C894.23,60,884.93,60,875.63,60H851.9Z"/><path class="cls-43" d="M162.07,631.44c7.72,0,15.45.26,23.16-.09,5.67-.27,9.7,2,13.06,6.23q8.13,10.3,16.46,20.44c1.77,2.14,2,4-.09,5.92s-4.4,2.1-6.44-.15c-5.06-5.56-10.36-10.93-15-16.84-3.51-4.49-7.16-6.67-13.17-6.47-14.55.5-29.12.17-43.69.14-3.11,0-7,.54-7-4.15s3.52-5.28,7.4-5.22c8.42.11,16.85,0,25.27,0Z"/><path class="cls-44" d="M132.75,608.54H179c3.19,0,6.45.21,6.56,4.17.11,3.8-2.82,4.68-6.18,4.68q-47.34,0-94.68.05c-3.18,0-5.89-1.2-5.83-4.6s2.7-4.35,6-4.33C100.84,608.59,116.79,608.54,132.75,608.54Z"/><path class="cls-45" d="M461.46,78.89c13.74-.09,26.16,7.06,34.23,21.49,1.49,2.65,4.38,6-.07,8.58s-6.22-.62-8.11-3.86c-10.32-17.67-30.77-22-47.45-10.25-4.15,2.94-6.82,7.09-8.84,11.53-1.8,4-4.46,4-7.71,2.69-3.84-1.59-1.87-4.49-1-6.69C428.13,88.15,442.53,78.87,461.46,78.89Z"/><path class="cls-40" d="M175.68,311.21a108.77,108.77,0,0,1,22.5,9.06c1.78.92,1.5,2.61,1.11,4.17-1.93,7.64-4.88,14.94-7.65,22.29-1,2.53-2.67,3.23-5.43,2.34-9.32-3-18.11-7.28-27.12-11.06-2.54-1.06-2.3-2.8-1.63-4.69,2-5.74,3.78-11.64,6.39-17.13C166.17,311.31,171.9,313.15,175.68,311.21Z"/><path class="cls-46" d="M580,293.62c.17,8.31-1.33,19-4.17,29.58a24.6,24.6,0,0,1-1.36,3.42c-1,2.3-2.51,3.81-5.34,2.86s-3-3.2-2.47-5.56a146.54,146.54,0,0,0,3.41-17c2.68-22.11-2.1-42.87-11-62.92a42.48,42.48,0,0,1-2-4.84c-.65-2.13.24-3.65,2.2-4.75,2.3-1.29,3.64-.14,4.81,1.61,4.43,6.61,7.17,14,9.73,21.46A118.21,118.21,0,0,1,580,293.62Z"/><path class="cls-47" d="M335.18,226.7c-.53,2.91-2.74,4.1-4.81,5.42-15,9.52-29.56,19.55-42.47,31.75-6.88,6.49-13.12,13.64-19.64,20.5-.72.76-1.41,1.57-2.11,2.35-2,2.18-4.15,4.48-7.06,1.86-2.74-2.46-.5-5,1-6.94,4.3-5.32,8.65-10.64,13.39-15.56,15.54-16.15,33.39-29.39,52.65-40.77a15.34,15.34,0,0,1,4.82-2C333.54,222.82,334.9,224.38,335.18,226.7Z"/><path class="cls-48" d="M462.06,707.37c0,3.87-.14,7.74,0,11.59.34,7.86,5.18,12.64,13,12.31,5-.21,8.57,1,10.08,6.14.7,2.39.23,3.56-2.52,3.73a134.64,134.64,0,0,1-16.32,0,4.75,4.75,0,0,1-3.6-1.85,12.88,12.88,0,0,0-1.77-1.92c-15.12-11.78-12.42-28.46-12.28-44.45,0-1.8,1.07-2.43,2.72-2.43a32.62,32.62,0,0,0,4.74-.07c4.64-.65,6.32,1.26,5.9,5.87-.33,3.66-.07,7.37-.07,11.06Z"/><path class="cls-49" d="M244.53,225.14c4.86,1.46,6.28-1.14,6.65-6.58.64-9.39,8.92-15.09,18.17-13.36,8.83,1.65,14,10.09,11.58,19.05-2.2,8.24-10.81,12.45-19.62,9.52a10.53,10.53,0,0,0-7.69.31c-5.53,2-11.75,1.45-17.64.26-1.94-.39-3.79-1.87-3.25-4s1.78-4.76,4.65-5.1A68.19,68.19,0,0,1,244.53,225.14Z"/><path class="cls-50" d="M558.74,628.6c0-3.69.26-7.4-.06-11.06-.41-4.69,1.61-6.27,6.07-6.07,5.43.25,10.88,0,16.32.21,4.63.15,6.92,2.92,7.3,7.36a36.55,36.55,0,0,1-.38,11c-.15.69-.11,1.78-.52,2-6.62,3.44-1.85,6.36.34,9.45.9,1.27,2.17,3.15.11,4-2.5,1-5.57,1.77-7.84-.64a55.8,55.8,0,0,1-5.09-6.68c-1.65-2.38-3.83-4-6.63-3.18s-1.16,3.63-1.4,5.53c-.34,2.61.07,5.57-3.6,6-3.46.44-4.76-1.8-4.87-4.74-.17-4.39,0-8.78,0-13.18Z"/><path class="cls-51" d="M427.41,709.82c0,4.74-.16,9.49,0,14.21.26,6.14,1.54,7.49,7.61,7.2,5-.24,8.14,1.4,9.26,6.36.44,1.94.34,3.44-2.34,3.42-5.27,0-10.54.09-15.8.2-3.38.07-4.23-2.7-5.5-4.89a48.73,48.73,0,0,1-6.71-28.22c.3-4.55.15-9.13,0-13.7-.07-2.57.63-4,3.52-3.81a29.84,29.84,0,0,0,5.26-.14c3.54-.37,4.6,1.35,4.5,4.62-.15,4.92,0,9.84,0,14.75Z"/><path class="cls-52" d="M226.33,269.71c-7.71-.23-12.43-3.49-14.47-9.19a15.3,15.3,0,0,1,4.62-17.13c4.32-3.59,12.3-4.74,17.12-.53,5.48,4.77,11.32,4.34,17.52,4.65,2.52.13,6.79-1.65,7,3,.22,4.16-2.38,6.78-6.89,6.89-1,0-2.09.3-3.12.24-4.67-.27-8.28-.27-10.27,5.78C236.24,268.33,230.73,270.25,226.33,269.71Z"/><path class="cls-40" d="M381.6,629c0,3.32.23,6.67-.06,10-.38,4.38-2.79,7.11-7.43,7.18-5.25.07-10.52.17-15.76-.08-4.23-.2-6.85-2.63-7-7-.2-6.65-.3-13.31-.2-20,.07-5.11,3-7.58,8-7.58,4.55,0,9.11-.13,13.66,0,6.44.22,8.47,2.19,8.86,8.5.18,3,0,6,0,8.94Z"/><path class="cls-10" d="M347.12,169.07a42.88,42.88,0,0,0,0,5.78c.69,5.17-2.06,6.31-6.5,6.3-3.24,0-4.82-1.43-4.25-4.35,2.09-10.62-3.3-16.54-12.2-20.59S311.36,145.4,313,135.58a32,32,0,0,0,.13-5.79c-.1-3.9,2.12-5.32,5.61-5.29s5.28,1.6,5.12,5.17a10.42,10.42,0,0,1,0,1.58c-2.13,9.72,2.55,15.48,11,19.07.8.34,1.49.94,2.28,1.31C344.65,155.13,349.14,160.24,347.12,169.07Z"/><path class="cls-53" d="M279,764.66c0,9.4-8.33,17.44-18,17.43-9.1,0-18.09-9-18.12-18.16,0-8.82,9.05-17.89,17.86-17.85C270.09,746.12,279.06,755.25,279,764.66Z"/><path class="cls-50" d="M325.41,646.36a78.44,78.44,0,0,1-9.45-.54c-3.79-.65-4.79-3.87-4.91-7.14-.1-2.83,2.46-2.94,4.47-3.34.65-.12,1.81-.12,2,.23,3,5.4,8,2.32,12.07,2.92,2.28.33,3-.92,3-3.14s-.88-3.19-3.15-3.18q-5.79,0-11.58-.22c-4.16-.2-6.43-2.46-6.53-6.64a50.3,50.3,0,0,1,.23-7.36c.42-3.49,2.38-6,6-6.35a73.42,73.42,0,0,1,17.34.11c3.37.44,5,2.74,5.15,6.26.15,2.73-1.23,3.85-3.5,4.35-.78.17-2.25.23-2.4-.1-2.43-5.49-7.4-2.28-11.09-3.29-2.66-.72-3.16,1.11-3.37,3.33-.25,2.55,1.2,2.88,3.14,3,3.68.15,7.37.29,11,.57,3.87.3,6.15,2.3,6.26,6.37,0,1.92.28,3.85.16,5.77-.37,6.09-2.4,8-8.48,8.28-2.11.08-4.22,0-6.32,0Z"/><path class="cls-54" d="M600.48,628.75c0-3.69.1-7.38,0-11.07-.14-4.24,2-6.17,6-6.24,5.62-.09,11.24-.06,16.86-.13,2.63,0,4.6.83,4.68,3.73.08,3.12-2.07,4.34-4.78,4.41a97.18,97.18,0,0,1-11.06-.24c-2.59-.21-3.37.67-3.41,3.17s.46,3.64,3.18,3.35c2.08-.21,4.21,0,6.31-.09,2.49-.15,2.92,1.4,3,3.31.11,2.07-.6,3.38-3,3.27-1.93-.09-3.86,0-5.79,0s-3.79-.2-3.74,2.84c0,2.75.91,3.72,3.68,3.56,3.85-.22,7.72-.08,11.58-.09,2.57,0,3.89,1.32,4,3.85.14,2.73-1.47,3.85-3.9,3.87-6.31,0-12.64.11-19-.1-3.48-.11-4.72-2.64-4.78-5.79-.06-3.86,0-7.73,0-11.59Z"/><path class="cls-55" d="M531.71,611.27c3.91-.88,5.74,1.32,7,4.63q4.57,12.29,9.31,24.5c.83,2.15,1.19,4.07-1.25,5.4s-4.24.51-6-1.47c-1.22-1.4-.86-4.2-3.22-4.38-3.65-.29-7.34-.17-11-.1-1.86,0-1.83,1.81-2.38,3-1.39,3.1-3.57,4.94-7,3.46s-2.09-4.19-1.21-6.67c2.75-7.74,5.61-15.43,8.15-23.23C525.33,612.49,527.42,610.4,531.71,611.27Z"/><path class="cls-56" d="M22.3,654.4c-1.78-3.62-3.69-7.15-7.51-9.1-2.26-1.16-5.2-1.79-4.13-5.51a7.4,7.4,0,0,1,6.7-5.66c7-.86,14-.06,20.93.21,1,1,2.7,1.34,2.87,2.89.63,5.89,3,11.48,2.87,17.49-.17,5.69-1.85,7.49-7.47,7.82a14.89,14.89,0,0,0-4.09.67c-6,2.1-8.77.33-9.45-6C22.9,656.28,23.39,655.14,22.3,654.4Z"/><path class="cls-30" d="M291.56,195.6c-.07-18.38-.09-36.76-.23-55.13,0-4,1.92-5.87,5.68-5.87s5.15,2.46,5.14,5.87q-.12,25.47-.3,50.94c-.85,1.26-.23,2.72-.51,4.05-.65,3.1-3,4-5.75,4.3C292.52,200.07,291.81,198.05,291.56,195.6Z"/><path class="cls-57" d="M362.9,14.64c-.27-2.64.31-5,2.85-6.25,3-1.46,3.25,1.55,4.48,3a5.7,5.7,0,0,0,5.94,2.26c7.4-1.34,14.86-2.51,22.33-3.35,3.14-.35,5-1.34,6.3-4.36,2.08-4.72,5.52-4.93,8.74-.91,4,4.92,1.12,13.4-5.05,14.49-11.89,2.11-23.8,4-35.72,5.93C366.25,26.49,363,22.82,362.9,14.64Z"/><path class="cls-58" d="M712,370c.27,2.8-.56,4.35-2.82,4.91-2.45.6-4.07-.3-4.83-2.74-1.4-4.52-2.68-9.08-4.28-13.52a176,176,0,0,0-22.85-43.57c-.92-1.28-1.8-2.6-2.6-3.95-1.13-1.93-.94-3.76.91-5.12a3.55,3.55,0,0,1,5,.33l.18.22a91.56,91.56,0,0,1,6.83,8.64c10.78,16.33,19.38,33.66,23.91,52.83C711.65,368.88,711.9,369.71,712,370Z"/><path class="cls-59" d="M458.52,17.47c-5.61,0-11.22-.15-16.82,0-3.73.14-6.08-1.54-7.28-4.79-1.31-3.53-1.69-7.23.83-10.43s5.78-3,7.86,1c1.7,3.28,4,3.79,7.18,3.71q10.5-.27,21-.15c3,0,4.81-.61,5.75-3.9,1-3.45,4.28-3.83,6.88-1.16s2.88,5.69,1.69,9.2a8.24,8.24,0,0,1-8.2,6.13c-6.3.18-12.61.05-18.91.05Z"/><path class="cls-60" d="M22.3,654.4c1.38.68,1,2.06,1.35,3.18,1.71,5.52,3.36,6.21,8.53,3.63a5.62,5.62,0,0,1,4.07-.35c4.84,1.28,6.55-1.1,6.24-5.45-.53-7.18-1.21-14.36-4.2-21.07l3-.14Q46.57,650.6,51.83,667a22.25,22.25,0,0,0,.25,4.16c.21,3.8-1.77,6.3-5.31,6.51C41,678,35.53,679.39,30,680.78a13.42,13.42,0,0,1-13.79-4.31c-.18-1.21-.37-2.5.71-3.37C23.14,668.14,23.53,661.51,22.3,654.4Z"/><path class="cls-61" d="M636.12,626.32c.08-9.49,6.13-15.5,15.5-15.41s16,6.89,15.83,16c-.13,8.68-7.07,15-16.36,14.88C642.16,641.71,636,635.37,636.12,626.32Z"/><path class="cls-50" d="M400,886.31c-.07-3.67,0-7.36-.24-11a9.27,9.27,0,0,1,3.67-8.23q15.06-12.69,30.06-25.46c2.84-2.42,6.09-1.81,8.93-.77s2.07,3.68.79,5.76c-2.14,3.51-5.6,5.73-8.64,8.35q-11.52,9.91-23.11,19.77c-.83,1.48-.35,3.09-.42,4.63-.09,1.76-.74,3.36-2.47,3.58C405.41,883.33,403,885.39,400,886.31Z"/><path class="cls-62" d="M269.9,611c8.92,0,15.59,6.34,15.7,14.88.12,9.23-6.55,16-15.7,16a15.35,15.35,0,0,1-15.64-15.07,4,4,0,0,1,0-.49C254.28,617.13,260.59,611,269.9,611Z"/><path class="cls-63" d="M207.82,371.26a105.53,105.53,0,0,1,5.27-18.09c5.65-15.14,12.7-29.59,22.19-42.71,1.57-2.18,2.91-7.2,7.32-4.22s.81,6.25-.94,8.9c-10.76,16.31-19.32,33.68-24.76,52.45A39,39,0,0,1,215,373c-1,2.18-3,2.13-5,1.76S207.56,373.1,207.82,371.26Z"/><path class="cls-54" d="M180.64,300.74c.29-5.27,1.41-5.88,6.35-3.95,1.88.75,4.16,3.56,5.94-.27,1.46-3.13,2.69-6.06-1.88-7.91-4.31-1.75-2.93-4.63-1.27-7.65,2-3.59,3.79-.88,5.51,0q9.24,4.95,18.35,10.15c1.94,1.11,4.24,2.3,1.9,5.2-1.68,2.08-2.58,5.25-6.33,2.53-3.34-2.42-6.47-3.48-7.71,2.39-.49,2.35-.33,3.26,1.92,4.36,6.82,3.35,6.77,3.76,2.66,9.66-1,1.44-1.35,1.77-3,.62a118.64,118.64,0,0,0-20.47-11.58C180.53,303.45,180.57,302.33,180.64,300.74Z"/><path class="cls-40" d="M139.79,378.34a16.54,16.54,0,0,1-14.62-9.27c-3.34-6.56-1.38-12.62,2.4-18.26,2-2.95,4.61-3.24,7.77-1.49,3.33,1.83,2.34,3.9,1.2,6.56-1.56,3.66-4.6,7.79,1,10.81,3.44,1.83,6.49,1.47,8.38-2.32,1.09-2.19,1.84-4.54,2.9-6.74s1.94-5.34,5.61-3.68c3.26,1.48,5.36,3.36,4.08,7.67C155.22,372.82,149.75,378.24,139.79,378.34Z"/><path class="cls-64" d="M211.4,226.55a14.49,14.49,0,0,1-13.88,15.08h-.79c-8.94.18-16-6.55-15.93-15.21,0-8.14,6.64-14.94,14.48-15C204.45,211.48,211.33,217.91,211.4,226.55Z"/><path class="cls-65" d="M887.26,206.13c.18-11.18,6.39-17.78,16.88-17.93s18,6.74,18.59,17.2a85.75,85.75,0,0,1-.75,14.68c-.31,2.69-1.25,4.47-4.47,4.52-3.79.06-2.84-2.69-3-4.6-.28-4.72-.2-9.46-.45-14.19-.19-3.4-.87-6.76-4.77-7.9-5.3-1.56-10.29.06-12.8,3.94-1.2,3.47.43,7.2-1,10.66l-.08,2c-.77,1.92-2.64,2.13-4.24,2.57-2.22.59-3.61,0-3.6-2.75S888.23,208.82,887.26,206.13Z"/><path class="cls-6" d="M5.23,790a13.35,13.35,0,0,1,13.22-13.46c7.4-.15,14.1,6.24,14.05,13.38,0,7.31-6.38,13.48-13.94,13.61C11.74,803.63,5.3,797.08,5.23,790Z"/><path class="cls-54" d="M393.32,629.37c0-3.87.11-7.74,0-11.6s1.72-6.06,5.49-6.21c6.14-.24,12.3-.28,18.44-.25,2.06,0,3.79.88,3.92,3.38a3.78,3.78,0,0,1-3.62,4.33,93.14,93.14,0,0,1-12.61.22c-3.19-.18-3.28,1.56-3.46,3.84-.19,2.6.91,3.41,3.38,3.3,2.27-.11,4.55.11,6.83.2s3.43,1.46,3.5,3.73-1.17,2.9-3.2,3.31c-6.64,1.34-8.38,3-10.28,9.73a4.19,4.19,0,0,1-4.63,3.38c-2.59-.1-3.63-1.68-3.6-4.19V629.37Z"/><path class="cls-66" d="M811.17,146.18c-.16,2.93-1.88,4.46-3.66,5.89-7.75,6.26-15.56,12.46-23.29,18.74-2.29,1.87-4.33,3-6.63,0-2.15-2.75-5.11-5.26-1.9-9.08,3.07-3.65,7-6.35,10.61-9.36,4.84-4,9.66-8.05,14.53-12,1.77-1.44,3.75-2,5.78-.44C808.9,141.62,811.13,143.32,811.17,146.18Z"/><path class="cls-67" d="M145.8,166.12c-.23,2.27-2.51,4-4.7,5.71-1.65,1.27-3.27.57-4.78-.62-8.37-6.59-16.85-13-25.1-19.76-4.12-3.36-4.31-6.46-1.27-9.88,2.1-2.37,4.51-3.45,7.32-1.19q13.47,10.85,26.88,21.76A4.24,4.24,0,0,1,145.8,166.12Z"/><path class="cls-68" d="M736.58,933.65a12.67,12.67,0,0,1-12.27,12.51c-7.12.08-13.25-5.77-13.31-12.72a12.58,12.58,0,0,1,12.17-13h.63A13.06,13.06,0,0,1,736.58,933.65Z"/><path class="cls-5" d="M200,946c-6.94-.11-13-6-12.88-12.63A12.83,12.83,0,0,1,200,920.49h.34c6.58,0,12.75,6.33,12.63,12.93A12.87,12.87,0,0,1,200,946Z"/><path class="cls-69" d="M116.61,204.64c0,4.87-4.77,7.75-8.82,4.84-9.64-6.92-19-14.24-28.38-21.52-3.16-2.45-2.71-5.48-.32-8.25s4.92-2.69,7.82-.48c8.32,6.36,16.81,12.5,25.11,18.89C114.12,199.74,116.9,201.16,116.61,204.64Z"/><path class="cls-46" d="M599.42,285.46a13.79,13.79,0,0,1,14-13.61h.34a14.39,14.39,0,0,1,13.62,14.5,14.06,14.06,0,0,1-14.45,13.53C605.23,299.82,599.35,293.54,599.42,285.46Z"/><path class="cls-70" d="M289.09,286.25c0-7.93,5.74-13.92,13.34-13.95,8.49,0,14.44,5.81,14.33,14.07-.12,8-6.11,13.56-14.43,13.39a13.33,13.33,0,0,1-13.24-13.42Z"/><path class="cls-71" d="M579,21.07c.13-2,0-5.76,4.78-6.51,3.14-.5,5.84.2,6,4,.11,3.23,1.88,4.51,4.59,5.45,6.92,2.41,13.84,4.88,20.68,7.51,5,1.9,5.67,4,3.74,8.39-1.26,2.87-3.22,3.54-5.9,2.54-8.85-3.31-17.73-6.54-26.49-10.1C582.18,30.62,578.69,27.93,579,21.07Z"/><path class="cls-72" d="M808.9,210.09c-4.47-.11-7.36-5.06-5.12-8.36a22.88,22.88,0,0,1,5.11-5.19c7.52-5.72,15.23-11.18,22.7-17,3.68-2.85,6.12-1,8.59,1.55s1.31,4.83-.86,6.75c-8.8,7.77-18.51,14.34-28,21.27A8.21,8.21,0,0,1,808.9,210.09Z"/><path class="cls-73" d="M537.16,199.72c-9.38.27-19-1.41-27.88,3.25-2,1.07-3.77.2-4.91-1.68A3.91,3.91,0,0,1,505,196c3-2.92,6.86-4.09,10.92-4.6,12.77-1.61,25.56-.55,38.34-.34,3,.05,5,1.29,5.16,4.66.13,4.06-2.9,3.86-5.45,3.92C548.38,199.82,542.77,199.72,537.16,199.72Z"/><path class="cls-74" d="M639.9,334.92c-7.67,0-13-5.27-13-12.73a13.15,13.15,0,0,1,26.28-1c0,.22,0,.43,0,.64C653.14,329.69,647.82,334.92,639.9,334.92Z"/><path class="cls-54" d="M444.21,611.38c3.67,0,7.35-.07,11,0,2.39.06,4.11,1.13,4,3.8s-1.43,4.75-4.18,4.19c-7-1.43-7.06,2.61-6.75,7.61.29,4.71.05,9.45.16,14.17.08,3.13-1.2,5.23-4.34,5.44-3.43.22-4.42-2.21-4.41-5.16,0-6-.05-11.91.21-17.85.13-3.11-.57-4.69-4-4.06a20.57,20.57,0,0,1-3.14,0c-3.16.12-4.42-1.72-4.59-4.52-.18-3.1,2-3.79,4.46-3.83,3.85-.07,7.7,0,11.55,0Z"/><path class="cls-75" d="M277.28,334.9a12.83,12.83,0,0,1-.8-25.65h.72c7.71,0,13.59,5.3,13.54,12.26C290.67,329.73,285.5,334.87,277.28,334.9Z"/><path class="cls-76" d="M372.39,211.06c3.85,0,7.74.3,11.56-.06,7.58-.71,13.05,3.05,18.1,7.9,2.46,2.36,2.53,5,.06,7.32-2.3,2.13-5.18,2.08-6.82-.59-3.35-5.49-8.29-6.2-14-6-8,.28-16.12.1-24.19.21-3.14,0-5.58-.43-5.62-4.39,0-4.15,2.7-4.27,5.68-4.26h15.25Z"/><path class="cls-6" d="M19.41,220.93C13,221,7.12,215.34,7.13,209.1c0-6.5,5.93-12.16,12.68-12.11,6.34,0,12.13,5.88,12,12.12S25.78,220.88,19.41,220.93Z"/><path class="cls-77" d="M106.43,60H83.85c-2.49,0-4.92-.16-5.68-3.38s-.32-5.34,3.74-5.4c16.29-.26,32.55.11,48.79,1.32,2.21.16,5,1.1,5,3.41,0,2.6-2.78,3.32-5.15,3.34-8,.08-16.1,0-24.15,0Z"/><path class="cls-78" d="M531.06,764.42c-2,.22-3.46-.29-4.09-2.39a3.58,3.58,0,0,1,1.71-4.51A26,26,0,0,1,534,755.4a232.29,232.29,0,0,0,34-12.49,42.49,42.49,0,0,1,4.89-2c2.34-.75,4.58-.78,5.81,1.9s-.47,4.1-2.4,5.07a197.68,197.68,0,0,1-44.23,16.33A4.71,4.71,0,0,1,531.06,764.42Z"/><path class="cls-79" d="M875.36,855.58c-.28,4.37-2.45,5.48-6.31,3.68-5.33-2.5-11-.9-16.5-1.34-2.31-.18-2.23,1.71-2.26,3.28-.08,3.83-.13,7.66-.2,11.49-5.13.1-6.29,1.17-6.74,6.34-.17,1.91.11,3.87-.33,5.75-.28,1.19-.2,3-2.38,2.46.86-9.78-.48-19.62,1-29.39.77-5,3.89-8.68,8.84-9.45a60.65,60.65,0,0,1,13.59-1c3,.21,4-1,4-4-.06-7.18.15-14.36.25-21.54,3.79,2.06,2.06,5.65,2.44,8.66-.16,4.36-.08,8.74-.13,13.11,0,2.53-.43,4.87-2.57,6.59-1.08.87-2.36,1.86-1.49,3.49.75,1.41,2.23,1.54,3.68,1.52C872,855.27,873.72,854.44,875.36,855.58Z"/><path class="cls-80" d="M541.9,210.82h17.87c2.66,0,5.54,0,5.65,3.84.11,3.64-2,4.92-5.32,4.91-12.45-.07-24.9,0-37.34-.23-2.46,0-5.78,0-5.63-3.89.14-3.56,2.77-4.61,5.84-4.65,6.31-.08,12.62,0,18.93,0Z"/><path class="cls-81" d="M840.64,887.24c2.36-3,1-6.6,1.38-9.9.33-2.63,1.21-5.15,3.35-6.54,1.85-1.2,3.56.2,4.72,1.89.06,4,.21,8.07.14,12.1-.14,8.41-4.68,13.08-13,13.19-7.18.09-14.38-.12-21.57-.2-2.33-5-1.42-6.79,4.17-8.16,5.37,0,10.75-.17,16.12-.08A4.88,4.88,0,0,0,840.64,887.24Z"/><path class="cls-82" d="M229.47,646.82c.12,2.15-.59,3.35-2,3.91-1.66.65-3.34,1-4.69-.87a189.89,189.89,0,0,1-22.11-38c-1.07-2.54-.94-4.88,2-6.15,3.19-1.37,4.47,1,5.63,3.18,4.49,8.3,8.83,16.69,13.36,25,1.76,3.22,3.91,6.22,5.82,9.35C228.29,644.49,229,645.91,229.47,646.82Z"/><path class="cls-83" d="M716.39,610.35c-1,5-3.67,9.46-5.8,14a179.55,179.55,0,0,1-12.22,22,8.46,8.46,0,0,1-1.62,2c-2.12,1.7-3.62,5.56-7.27,2.71-3.35-2.61-.77-5.07.71-7.27a209.51,209.51,0,0,0,17.61-32.85,24.08,24.08,0,0,1,1.57-3.33c1-1.59,2.33-2.62,4.4-1.92S716.62,608,716.39,610.35Z"/><path class="cls-84" d="M473.9,162.36c12.11,1.89,24.2,3.83,35.76,8.06,2.24.81,4.88,2,3.89,5.22s-3.62,3.54-6.39,2.67a157.09,157.09,0,0,0-33.28-7c-3-.26-5.76-1.4-5.29-5.12C468.9,163.32,471,162.08,473.9,162.36Z"/><path class="cls-85" d="M326.42,733.59c-1,3.49-3.37,4.18-6.41,2.51-5.84-3.19-11.67-6.41-17.33-9.89-4.92-3-9.68-6.31-14.35-9.7-2-1.48-4.73-3.27-2.52-6.39s4.61-2.17,7.23-.26a320.26,320.26,0,0,0,30,19.24C324.74,730.07,326.19,731.3,326.42,733.59Z"/><path class="cls-86" d="M407,178.65c-2.39.16-3.6-1.18-4.37-3.15s.3-3.39,1.79-4.46a10.13,10.13,0,0,1,2.84-1.29A176.75,176.75,0,0,1,439.49,163c2.34-.28,5.15-.66,6.38,2.26.95,2.25.36,4.47-2.17,5C431.37,172.74,418.9,174.53,407,178.65Z"/><path class="cls-87" d="M898.63,779.72c1.36-3.43,6.1-5.82,5.29-9.28s-4.36-6-6.68-9c-1-1.22-1.86-2.48-2.78-3.72,2.68-4.84,6.61-2.93,10.38-1.94,2.51,3.08,5,6.15,7.53,9.24,5.46,6.74,5.51,6.79-.24,13.52-2.56,3-5.4,5.76-8.11,8.62C899.05,786.27,898.07,784.91,898.63,779.72Z"/><path class="cls-88" d="M79.44,213.2c-3.87,3.37-5.12,8.61-8.68,12.2a134.38,134.38,0,0,1-13.15-8.6c-3.79-2.75-2.72-5.75-.74-8.67s3.82-6.85,8.6-4.14A86,86,0,0,1,79.44,213.2Z"/><path class="cls-89" d="M843.06,210.41c2.72-1.85,5.39-3.78,8.17-5.52,5.77-3.59,7.36-3.14,11.15,2.89,3.14,5,2.63,6.81-3.08,10.45-3.65,2.33-7.38,4.55-11.07,6.82C842.75,221.6,840.33,214.75,843.06,210.41Z"/><path class="cls-90" d="M19.45,137.87C19.05,131.93,18,126,18.92,120c.31-2,.55-3.9,3.27-3.77s4.4,1.08,4.49,4c.35,11.39-.78,22.73-1.26,34.1-.09,2.18-1.57,2.92-3.56,2.91s-2.45-1.36-2.43-3.14C19.49,148.72,19.45,143.29,19.45,137.87Z"/><path class="cls-91" d="M905.46,119.59c-4.73,0-9.47-.1-14.2,0-3.31.09-3.65-2.09-3.76-4.47-.13-2.72.94-4.14,4-4.09q13.41.18,26.82,0c3.76-.07,3.55,2.34,3.77,4.86.27,3.09-1.14,4-4,3.84-4.21-.16-8.42,0-12.63,0Z"/><path class="cls-92" d="M860.84,251.45l-5.57-10.72c4.42-2.77,8.74-5.7,13.27-8.27,4.85-2.75,6.52-2,9.6,3,2.35,3.88.59,6.44-2.71,8.15C870.53,246.19,866.39,250.15,860.84,251.45Z"/><path class="cls-93" d="M63.63,240.82c-3.86,2.53-5.07,6.65-6.4,10.7-4.72-2.61-9.46-5.15-14.14-7.83-3.86-2.21-4.06-5.12-1.73-8.75,2.21-3.46,4.62-5.06,8.55-2.56C54.44,235.21,59.05,238,63.63,240.82Z"/><path class="cls-94" d="M879.5,267.27c3.13-.95,4.75.27,4.76,4.41a22.17,22.17,0,0,0,1.71,9.2c2.88,6.16-2.52,5.71-5.31,7.48-3.89,2.46-4.84-.57-5.91-3.14-1.42-3.37-2.74-6.8-4-10.26-2.29-6.5-2.25-6.52,4.39-7.29C876.41,267.52,877.63,267.44,879.5,267.27Z"/><path class="cls-95" d="M875.36,855.58c-2.93.31-5.51,2.2-8.87.59s-3.17-4.52-1.18-5.55c5.06-2.63,3.72-6.85,3.88-10.8.12-2.79.11-5.59.16-8.38a15.76,15.76,0,0,0,4.22-6.37c.8-2,.95-4.9,4.12-5.18-.63,9.89.34,19.82-.74,29.7A21,21,0,0,1,875.36,855.58Z"/><path class="cls-96" d="M43.56,131.3c0,5.4.1,10.81.08,16.22,0,6.34.82,7.39,6.92,8,2.42.24,5.43-.08,5.25,3.49-.17,3.18-3,2.79-5.24,2.92s-4.54.22-6.81.15c-4.63-.12-7.12-3-7.48-7.19-.42-5-.07-10.11-.06-15.16C38.51,136.82,38.39,131.74,43.56,131.3Z"/><path class="cls-97" d="M89.9,952.72c1.33-2.63,3.84-1.88,6-2.15,1.11-.13,2.83.46,3-1.25.11-1.25-1.16-2.09-2.32-2.58a20.17,20.17,0,0,0-7.73-1.16q-30.19-.12-60.38-.32c-1.7,0-3.53.48-5-.81H98.35c7,.94,14,.22,20.94.4,2.25,0,4.35,0,4.44,3,.08,2.64-1.46,3.49-3.89,3.93-2.24.4-4.56,0-6.72.85Z"/><path class="cls-98" d="M40.52,267.48c11.93.87,11.93.87,7.61,11.82-.57,1.46-1.15,2.92-1.79,4.35-2.93,6.51-2.93,6.49-9.49,3.11-2-1-3.59-1.64-1.75-4.59,2-3.14,1.6-7.12,1.25-10.73S37.3,266.61,40.52,267.48Z"/><path class="cls-99" d="M523.45,14.82c1.12,4.89-1.4,5.73-5.72,4.76-2.54-.57-5.21-.56-7.76-1.12-2.3-.5-6,1.51-6.59-2.16s-1.84-8.23,3.85-9.78a6.19,6.19,0,0,0,2.44-1.92c2.33-2.54,4.3-2.76,6,.64.8,1.6,1.94,3.11,3.85,3.24C523.64,8.82,524.3,11.2,523.45,14.82Z"/><path class="cls-100" d="M540.53,18.67c.24-4,.13-8.35,6.21-7.86a3.75,3.75,0,0,0,2.33-1.1c2.82-2.52,4.75-2.37,6.18,1.47a7.33,7.33,0,0,0,3,3.55c4.2,2.45,2.09,5.69,1.31,8.7-1,3.83-3.79,1.29-5.62,1.16-3.28-.24-6.49-1.51-9.76-1.69S540.11,21.45,540.53,18.67Z"/><path class="cls-101" d="M16.19,676.47c2.44.87,4.86,1.83,7.34,2.6,2.89.9,6.13,1.44,8.61-.23,3.65-2.43,7.49-2.6,11.47-2.32,5.32.39,8-1.63,7.4-7.2-.07-.74.55-1.56.86-2.34l6.48,14.6a6.2,6.2,0,0,1-3.93,1.1H22.61C18.62,682.63,15.9,681.1,16.19,676.47Z"/><path class="cls-102" d="M272.68,694.24a3.5,3.5,0,0,1-1.89,3.44,3.62,3.62,0,0,1-4.37-.23,115.69,115.69,0,0,1-15.7-15.28c-1.75-2-2.44-4.31-.08-6.45s4.19-.56,5.86,1.07c4.86,4.75,9.66,9.56,14.52,14.31A4.59,4.59,0,0,1,272.68,694.24Z"/><path class="cls-103" d="M821.9,31.21c-4.84,5.72-4.84,5.72,3.15,8.21H796.64a7.7,7.7,0,0,0-1.9-.73c-2-.32-4.22-.41-4.41-3.23-.2-3,2-3.55,4.19-4.21Z"/><path class="cls-104" d="M602.68,237.59c.14,3.34-2.8,5.48-5.38,3.89-6.54-4-12.87-8.4-19.23-12.71-1.66-1.12-2-2.73-1.05-4.61s2.38-2.78,4.24-2A73,73,0,0,1,602,236.09,3.61,3.61,0,0,1,602.68,237.59Z"/><path class="cls-105" d="M100.45,39.41c1.45-1.38,3.27-.81,4.94-.93S108.6,38,108.76,36c.13-1.66-1.07-2.39-2.52-2.8-2.29-.64-4.57-1.33-6.85-2l29.5.06a7.12,7.12,0,0,0,2.39,1.05c2,.65,3.49,1.87,3.5,4.09,0,2.38-2.21,2.34-3.74,3Z"/><path class="cls-106" d="M877.69,819.89a21.16,21.16,0,0,0-3.4,7.35c-.52,2.46-1.75,4.63-4.94,4.2-.61-3.14.71-6.5-1-9.53a11.62,11.62,0,0,0-1-2.35c-2.55-3.72-2.45-7.41,1.09-10.11,3.06-2.34,6.73-1.94,9.46.85C880.9,813.37,881,816.82,877.69,819.89Z"/><path class="cls-107" d="M.4,139.72c4.74,1.35,5.66-3.25,8.23-5.29v23.08c-1.33,1.8-.69,4.58-3,5.9-1.67,1-3.26,2.26-5.14.44Z"/><path class="cls-108" d="M819.82,889.62c-4,1.39-4.89,4.36-4.17,8.16l-19.86.06c-1.94,0-3.58-.82-4.08-2.64s1.21-2.72,2.53-3.52c1.61-1,3-2.2,5.19-2.16C806.23,889.65,813,889.6,819.82,889.62Z"/><path class="cls-109" d="M.48,163.82c5,.83,5.28-4.42,8.15-6.34v19.46a2.58,2.58,0,0,1-.07,1c-1.74,3.05-2.21,8.45-6.08,8.12S.58,180.81.37,178C.08,173.33.42,168.58.48,163.82Z"/><path class="cls-110" d="M794.47,31.26c-4.23,3.4-4.23,3.4,2.12,8.17-8,.06-16.08.93-24-.86-2.14-.49-5.19-.57-5-3.47.16-2.5,3.17-1.27,4.76-2C779.52,29.87,787.05,31.32,794.47,31.26Z"/><path class="cls-111" d="M113.1,952.67c1.7-1.54,4-.82,6-1.63,1.74-.72,3.93-.59,3.54-3.44-.36-2.65-2.4-2.09-4-2.13-5.58-.14-11.16-.19-16.74-.28a5.19,5.19,0,0,1-3.5-.75c12.91.06,25.85-1.08,38.72.93,2.1.33,4.69.62,5.1,2.9.48,2.68-2.53,2.5-4.12,3.07C129.9,954.21,121.43,952.34,113.1,952.67Z"/><path class="cls-112" d="M97.27,71.32c-6.94-.85-14,.82-20.89-1.25a188.06,188.06,0,0,1,36.6.08c1.2.12,2.38.47,3.58.65,2.41.36,4.39.93,4.07,4.14-.29,3-1.76,4.51-4.67,4.52-12.93.07-25.86.81-38.79,0,7.33-1.63,14.82,0,22.18-1,3.53-2.75,7.93-.5,12-2.12-.58-3.06-2.81-3.49-5.37-3.63C103,72.58,99.9,73.34,97.27,71.32Z"/><path class="cls-113" d="M908.39,350.06c0,3.53-3.57,6.76-7.4,6.76s-6.61-3.16-6.62-7.38,2.89-7.17,6.81-7A7.69,7.69,0,0,1,908.39,350.06Z"/><path class="cls-114" d="M95.14,100.94a32.24,32.24,0,0,1-4.61-.27c-2.87-.65-3.8-2.72-3.74-5.48s1.83-3.6,4.06-3.89c4.23-.54,8.31.84,12.43,1.38,2,.25,3.47,2.45,3.28,4.74-.17,2-2,2.21-3.6,2.28C100,99.82,97.22,101.34,95.14,100.94Z"/><path class="cls-115" d="M53.34,138.53c-.17-5.37-.48-10.74-.48-16.12,0-6.36.83-6.81,7.57-4.8a57.87,57.87,0,0,1,0,18.2C59.65,140.14,57.32,140.82,53.34,138.53Z"/><path class="cls-116" d="M855.09,777.91c-3.38-.16-11.52-5.72-10.85-7.72.86-2.57,1.31-6.12,5.34-6,4.54.14,11.67,5.61,11.14,8.74C860.23,775.82,858.58,778.08,855.09,777.91Z"/><path class="cls-117" d="M723.9,663.45c-.1,3.69-3.64,7-7.34,6.55s-6.57-2.52-6.67-6.73a7,7,0,1,1,14-.13C723.91,663.25,723.9,663.35,723.9,663.45Z"/><path class="cls-118" d="M123.68,931.51l3.32-1.32c-3.14-6.27-9.54-5.42-14.9-6.83h26.3a9.89,9.89,0,0,0,2,.63c2.58.94,4.31,2.84,3.83,5.53s-3.14,1.25-4.84,1.59a6.48,6.48,0,0,0-2,.41Z"/><path class="cls-119" d="M336.68,695.38c.17,4.56-3.24,8.24-3.16,12.79a33.16,33.16,0,0,1-13.41-10.3c-1.64-2.06-1.54-3.31,1.08-3.34C326.36,694.47,331.63,693.23,336.68,695.38Z"/><path class="cls-120" d="M478.36,840.7c3.65.08,7.09,3.47,7.09,7,0,3.3-3.83,7-7.36,6.72-4-.31-6.47-2.41-6.49-6.69S474.41,840.62,478.36,840.7Z"/><path class="cls-121" d="M18.16,342.54c4.57.07,7.79,3.21,7.75,6.91a6.61,6.61,0,0,1-6.83,7c-4,0-7.07-2.82-6.72-6.95C12.68,345.64,14.62,343,18.16,342.54Z"/><path class="cls-122" d="M776.43,671.14a6.61,6.61,0,0,1-6.71-6.51,5.82,5.82,0,0,1,0-.59c.12-4.07,2.09-6.58,6.37-6.7a7.21,7.21,0,0,1,7.2,6.78,6.92,6.92,0,0,1-6.82,7Z"/><path class="cls-123" d="M131,39.43c3.34-2.09,4.3-4.2-.12-6.06a2.8,2.8,0,0,1-2-2.09C135.7,31,142.47,30.73,149,33c1.25.44,2.93.19,3.06,2.16s-1.46,2.66-2.92,3.14C143.21,40.25,137.11,39.57,131,39.43Z"/><path class="cls-124" d="M383,855.11a7.06,7.06,0,0,1-6.76,7.14,6.39,6.39,0,0,1-6.9-5.86,5.28,5.28,0,0,1,0-.89c0-4.14,2.15-6.58,6.25-6.9A7,7,0,0,1,383,855.11Z"/><path class="cls-125" d="M913.37,845.15a2.54,2.54,0,0,1-.73,3.24c-5.56,3.38-2.66,5.93.69,8.51-4.35,0-8.7-.26-13-.11-3.51.11-5.43-1.68-5.54-4.81s2.68-4.25,5.33-4.52a91,91,0,0,1,9.91-.28C911.63,847.2,912.47,846.21,913.37,845.15Z"/><path class="cls-126" d="M676.06,765c-3.16-.56-6-2.31-6.06-6.57-.07-3.85,1.93-6.4,5.84-6.78,3.55-.35,7.42,3.29,7.53,6.66C683.48,761.82,680.31,765,676.06,765Z"/><path class="cls-127" d="M.4,756.35v-4.18c0-2.53,1-4.81,3.68-4.77a4.79,4.79,0,0,1,4.45,4.45,63.19,63.19,0,0,1,.2,9.92c-.11,2.57-1.63,4.32-4.32,4.27s-4-1.84-4.09-4.46c-.06-1.74,0-3.48,0-5.23Z"/><path class="cls-128" d="M594.09,797.71a6.65,6.65,0,0,1-6.66,6.61l-.43,0c-3.89-.32-6.08-2.72-6.42-6.42-.33-3.47,3.77-7.29,7.12-6.86C591.76,791.54,593.79,794.07,594.09,797.71Z"/><path class="cls-129" d="M330.4,23.82c1.91,3.62,2.45,7.61,3.16,11.55-5.76,4.29-12.31,3.77-18.88,3l-2.1-5.22c4.27-1.58,8.79-2.33,13.14-3.66C329.27,28.42,329.69,26.38,330.4,23.82Z"/><path class="cls-130" d="M720.47,748.14q.09-10.53.17-21.07c4.54.07,9.17-.39,13.22,2.41,1,.68,2.42,1,2.32,2.54a3.54,3.54,0,0,1-2.52,3.09c-1.8.64-3.8,1.55-5.57,1.31-6.08-.83-7.1,2.37-6.64,7.32C721.59,745.22,722,746.94,720.47,748.14Z"/><path class="cls-131" d="M843.06,210.41c-1.32,6,2.4,10.13,5.17,14.64-2.63,2.13-5.22,4.32-8.46,5.51,3.33-4.73-.66-8-3.5-9-3.24-1.17-2.73-2.9-3.07-4.93A43.06,43.06,0,0,1,843.06,210.41Z"/><path class="cls-128" d="M604.55,330.21c-4.28.11-7.76-3.17-7.56-6.88a6.08,6.08,0,0,1,5.86-6.23c3.76-.42,7.47,2.94,7.32,6.54C610,327.51,607.81,329.64,604.55,330.21Z"/><path class="cls-132" d="M314,363.52c-5.15,1.49-5.59-1.7-5.57-5.69,0-3.55-.19-6.45,5-6.13,6.92.41,6.66.06,7.13,6.73C321,363.82,318,364,314,363.52Z"/><path class="cls-133" d="M313.46,318c5.05-1.21,6.34,1.23,6.43,6.11.13,6.91-4.82,4.79-8.29,5.32-5.08.77-3.83-3.11-4-5.78C307.27,319.55,308.26,316.63,313.46,318Z"/><path class="cls-134" d="M88.24,112.26c3.38-.76,6.4,1.5,9.63,3.23A2.23,2.23,0,0,1,99.25,118c-.18,1.34-1.21,1.55-2.29,1.66-3.64.36-7.19,1.4-10.91,1.17-3-.18-5.62-.53-5.72-4.46-.11-4.3,2.83-4.1,5.71-4.09Z"/><path class="cls-135" d="M13.9,257c-4.05-.65-6.57-2.83-6.53-6.88,0-3.81,2.27-6.15,6.19-6.35,3.57-.19,7.07,3.44,6.83,7.07C20.09,254.82,17.33,256.32,13.9,257Z"/><path class="cls-136" d="M384.07,835c-.48,3.28-2.18,5.91-6.06,6.4-3.25.42-7.35-3.5-7.06-6.9a6.22,6.22,0,0,1,6-6.11C380.36,828.1,384,831.37,384.07,835Z"/><path class="cls-136" d="M284.72,352c3.77-.63,6.11-.08,5.69,4.34-.34,3.69,1,7.85-5.48,7.37-4.13-.31-6.58-.26-6.61-5.71S280.32,351.17,284.72,352Z"/><path class="cls-137" d="M259.45,358.16c1.52,5.81-2.51,5.23-6.34,5.56-4.47.38-5.44-1.36-5.58-5.57-.19-5.28,2.07-6.15,6.69-6.39C259.45,351.5,260.09,354,259.45,358.16Z"/><path class="cls-138" d="M43.56,131.3c-3.8,1.63-3.53,6.8-7.34,8.43-.08-6.28-.12-12.56-.27-18.84-.06-2.57.76-3.82,3.59-3.71,2.58.1,4.49.41,4.31,3.66C43.67,124.32,43.65,127.82,43.56,131.3Z"/><path class="cls-139" d="M905.45,256.82c-3.46-.93-6.13-2.94-5.75-7.2.36-4,3-5.82,6.81-5.75,3.58.06,6.7,3.61,6.1,7.08C912,254.61,909.75,256.82,905.45,256.82Z"/><path class="cls-140" d="M830.9,809.16c-3-.1-8.24-4.8-7.81-7.16.61-3.38,2.87-5.66,6.41-5.82,3.11-.15,7.47,4.48,7,7.3A6.41,6.41,0,0,1,830.9,809.16Z"/><path class="cls-141" d="M137.35,931.52c1.63-1.74,5.3.3,5.76-2.06.59-3-2.59-4.43-4.71-6.1h15.23c2.35,0,4.31.84,4.64,3.31s-2,3.07-3.76,3.7C148.9,932.39,143.11,931.73,137.35,931.52Z"/><path class="cls-142" d="M38.3,304.28c-1.12,2-.72,6.14-4.38,5.69s-8.58-.63-9.93-4.87c-.54-1.71-.48-6.4,3.88-6.7C31.55,298.15,38.17,301.82,38.3,304.28Z"/><path class="cls-143" d="M21.55,319.56c2,.57,4,1.1,6,1.73,2.6.83,5,1.56,3.46,5.39-1.24,3-2.42,5-6.08,3.35a32.35,32.35,0,0,0-5-1.42c-2.21-.57-4.8-.85-4-4.2C16.59,321.53,17.66,319,21.55,319.56Z"/><path class="cls-144" d="M510.68,879c.1,2.6.32,5.21.25,7.8,0,1.74.75,4.67-1.9,4.57-3-.11-6.88,2.73-9-1.79a8.8,8.8,0,0,1-.32-3.57C499.58,878.08,502.9,876,510.68,879Z"/><path class="cls-145" d="M891.17,298.66c5.06,0,5.29,4.26,5,6.32-.76,5.13-6.13,4.06-9.59,5-3.89,1-4.77-3.13-4.54-5.45C882.61,298.82,888.51,300.82,891.17,298.66Z"/><path class="cls-146" d="M899.18,319.64c3.54-.31,4.09,2.3,4.74,4.68.76,2.81-1,3.71-3.32,4.23a39.19,39.19,0,0,0-5.57,1.53c-3.51,1.36-4.65-.67-5.64-3.45-1.16-3.23.51-4.52,3.21-5.26C894.79,320.82,897,320.21,899.18,319.64Z"/><path class="cls-147" d="M43.69,698.47c5.41-.22,6.79,3,6.87,6.38.1,4.17-3.28,5.51-6.8,5.68-4.27.22-5.82-2.64-5.85-6.39C37.9,699.73,41.15,698.9,43.69,698.47Z"/><path class="cls-148" d="M510.68,879c-10.07.72-10.07.72-10.7,10.58-2-5.91-.66-11.78.37-17.59.61-3.43,3.75-2.54,6.07-2.48s4.64.33,4.31,3.73C510.54,875.14,510.68,877.08,510.68,879Z"/><path class="cls-149" d="M587.39,833.07c4,.35,6.37,2.44,6.38,6,0,3.76-2.44,6.17-6.28,6.29s-5.75-2.39-5.88-5.89C581.47,835.49,583.9,833.52,587.39,833.07Z"/><path class="cls-150" d="M53.34,138.53c4.88.76,6.58-.6,6.92-6.25.29-4.88.13-9.78.17-14.67,2.12,4.5.61,9.27,1,13.89.22,2.74.09,5.33,4,5.27a3.24,3.24,0,0,1,3,2.61c.38,1.62-1.07,2.51-2.13,3.34A8.38,8.38,0,0,1,54.58,141,8.1,8.1,0,0,1,53.34,138.53Z"/><path class="cls-151" d="M810,834.91c-3.3-.33-5.14-2.52-5-5.9.16-3,1.53-5.4,5.22-5.22s6.11,2.1,6,5.8C816.1,833,813.77,834.82,810,834.91Z"/><path class="cls-152" d="M104.72,823.82c3.88.18,5.32,2.46,5.31,5.85s-1.9,5.08-5.23,5.12c-3.66,0-5.38-2-5.43-5.49S101.39,824,104.72,823.82Z"/><path class="cls-153" d="M291.56,195.6c.75,2.27,2.47,3.47,4.67,3s4.33-1.55,4.62-4.3c.11-1,.09-2.12,1-2.87v10.51c-1.26,2,.93,5.43-2.84,6.53-4.34,1.26-6.67-.35-7.4-5.5Z"/><path class="cls-154" d="M400,886.31c1.41-1,1-4.18,3.06-3.86,6.37,1,7.2-3.45,8.4-7.74-.23,4.15-.42,8.3-.7,12.44-.29,4.43-3.78,3.81-6.58,3.91C401.1,891.17,399.23,889.82,400,886.31Z"/><path class="cls-155" d="M898.63,779.72a9.05,9.05,0,0,0,5.39,7.46c-.38,3.17-2.93,3.89-5.35,4.87s-3.47-.89-4.8-2.18a2.87,2.87,0,0,1-.41-4l.16-.18C895.19,783.59,896.21,781.05,898.63,779.72Z"/><path class="cls-156" d="M116.29,904.42c.27,3.45-.52,6-4.24,6-3.32,0-4.24-2.3-4.24-5.33s.18-5.33,4.36-5.27C115.9,899.92,116.65,901.63,116.29,904.42Z"/><path class="cls-157" d="M909.58,730.31a5.21,5.21,0,0,1-5.29-4.85c-.34-3.09,1.83-5,4.74-5.19a4.7,4.7,0,0,1,5.34,4.65C914.48,727.82,912.73,729.82,909.58,730.31Z"/><path class="cls-158" d="M805.36,171.08c2.75.69,5.06,1.93,5.1,5,0,3.32-2.14,5.22-5.23,5.33s-4.65-2-4.58-5.08S802.47,171.68,805.36,171.08Z"/><path class="cls-159" d="M118.9,176.37c-.43,3.1-2,4.85-5.22,4.75s-4.75-2-4.73-5.08,1.81-4.93,5-4.66C116.9,171.62,118.77,173.22,118.9,176.37Z"/><path class="cls-160" d="M138.4,905.61c-.32-3.11,1.38-5.06,4.09-5.1s5.42,1.5,5.16,4.71c-.2,2.42-.67,5.5-4.46,5.38C139.9,910.5,138.56,908.61,138.4,905.61Z"/><path class="cls-161" d="M53.15,887.27c-2.09,0-4.2.1-6.28,0a5,5,0,0,0-5.62,3.64c-1.4,3.82,3.07,1.86,3.57,3.76-1.39,0-2.91.46-4.16,0-1.7-.56-4.49,2.46-5.12-1.28-.73-4.33,1.71-8.22,5.43-7.93C45,885.82,49.65,883.17,53.15,887.27Z"/><path class="cls-162" d="M762,878.82c-.24,3.92-2,5.9-4.93,5.94s-4.85-1.9-4.89-5,1.63-4.85,4.79-5S761.39,876.82,762,878.82Z"/><path class="cls-163" d="M162.56,879.24c-.24,3-1.65,5.32-4.65,5.42-3.31.11-5-2.22-5-5.43,0-2.84,1.61-4.51,4.55-4.6C160.62,874.53,162.2,876.25,162.56,879.24Z"/><path class="cls-164" d="M291.59,203c.92,2.66,1.94,4.49,5.59,4.53,4.56,0,3.11-3.75,4.65-5.56,0,2.59.13,5.18.05,7.77-.1,3.35-2.67,4.17-5.28,4.61-3.1.53-4.25-1.35-4.68-4.15A21.77,21.77,0,0,1,291.59,203Z"/><path class="cls-165" d="M761.84,75.42c2.91.31,4,2.58,4.12,5.4.09,3-1.81,4.35-4.69,4.38-3.15,0-4.56-2.26-4.6-4.69C756.61,77.82,758.11,75.48,761.84,75.42Z"/><path class="cls-166" d="M201.76,41.53c4.39,0,5.91,1.95,6,4.52.07,2.9-1.66,4.87-4.88,4.82-2.86,0-4.64-1.42-4.54-4.42S199.9,41.6,201.76,41.53Z"/><path class="cls-167" d="M723.79,45.94c-.21,3-1.83,4.76-4.6,5s-4.83-1.3-5-4.23c-.18-3.09,1.59-5,4.69-5.18S723,43.56,723.79,45.94Z"/><path class="cls-168" d="M887.26,206.13c.94,1,.76,2.28.83,3.49.43,7.18.43,7.18,7.41,4.88.72,7.71.12,8.8-4.42,8.57-2.58-.13-3.92-1.21-3.91-3.82Z"/><path class="cls-169" d="M12,730.38c-3.33-.29-5-2.37-5-5.2,0-2.58,1.51-4.67,4.63-4.52s4.86,2,4.82,5S14.75,730.1,12,730.38Z"/><path class="cls-170" d="M157.59,85.15c-3.05-.54-4.65-2.1-4.48-5s1.7-4.5,4.65-4.46,4.41,2,4.32,4.75S160,84.62,157.59,85.15Z"/><path class="cls-171" d="M215.17,703.82c3,3.54,6.32,5.45,10.68,2.12-.28,3.44-2.31,5.72-5,7.54-5.69.59-7.09-.61-7.69-6.57Q214.17,705.41,215.17,703.82Z"/><path class="cls-172" d="M45.54,909.52c-.4,2.5-1.26,4.72-4.18,4.39-2.56-.3-4.8-1.72-4.79-4.65A4,4,0,0,1,40.26,905h.58C43.9,905,45.07,906.9,45.54,909.52Z"/><path class="cls-173" d="M213.15,706.94c1.62,3.29,3,6.87,7.69,6.57-.44,1.31-1.65,1.69-2.7,2.26a6.49,6.49,0,0,1-8.89-2.25,2.12,2.12,0,0,1-.11-.21C207.1,710,210.64,708.38,213.15,706.94Z"/><path class="cls-174" d="M53.24,851.41c2.41,2.76,5.6-.79,8.12,1,.87,3.25-1.24,5.74-3.61,5.67C54.34,858,52.43,855.22,53.24,851.41Z"/><path class="cls-175" d="M904.84,755.82c-3.32,1.41-7.37-1.1-10.38,1.94-2.89-3,1.14-3.11,2-4.23,1.18-1.47,3.09-3.1,5.3-1.51C903.1,752.93,904.82,753.75,904.84,755.82Z"/><path class="cls-168" d="M895.58,212.51c-.36-3.62-1-7.26,1-10.66C896.27,205.41,897.44,209.09,895.58,212.51Z"/><path class="cls-176" d="M920.4,809.08c-3.17-1.5-6.65-1.73-9.17,1.36-2.4,2.89-2.64,6.14.45,8.89,1.69,1.48,1.69,3.26,1.69,5.26v20.56c-.47,1.08-.4,2.45-1.75,3a4.38,4.38,0,0,0-3.1,4.84c.31,2.9,2.89,3,4.83,3.9.06,24.25.22,48.5.13,72.74,0,8.58-6,14.44-14.58,14.9-5.26.28-10.54,0-15.81.21-2.5.09-3.36-.67-3.36-3.24,0-7.08-.06-14.08-.38-21.08-.18-3.13,1.35-3.47,3.82-3.26,6.8.57,12.39-2.16,16.92-6.93,7.25-7.65,8.22-19.5,2.65-28.84a24,24,0,0,0-27.08-11.3c-10.61,2.81-16.59,10.84-16.91,22.52s-4.6,15.91-16.46,15.91c-19.34.1-38.67-.12-58,.1-13.79.15-23.35,10.61-22.64,24.23.61,11.85,10.11,20.62,24.11,20.73,37.42.31,74.86.15,112.29.06,7.85,0,14.22-3.56,19.07-9.64,3.88-4.86,5.14-10.54,5.14-16.74q-.1-48.5,0-97c0-4.31-.36-8.57,1.71-12.84C925.57,814.14,923.78,810.7,920.4,809.08ZM870.62,916.22c-.34,5.6-.19,11.23-.14,16.84.11,11.47.14,11.49-11.28,11.51s-22.81,0-34.22,0v-.17c-14.38,0-28.77.17-43.15-.09-5.68-.1-9.79-3.84-11.22-9.45-1.34-5.28-.29-10,4-13.84,3.54-3.14,7.87-3.71,12.29-3.73q28.43-.18,56.86-.17a27.43,27.43,0,0,0,15.39-4.39c7.16-4.62,9-11.41,8.8-19.5-.2-10,5.41-15.37,14.7-14.94a15.62,15.62,0,0,1,15,16.22c0,.38,0,.77-.08,1.15-.91,8.38-8.87,14.46-16.71,12.76C874.1,907,871.07,909.1,870.62,916.22Z"/><path class="cls-177" d="M922.27,55.91c0-4.58-.76-9-3.42-13-5.53-8.4-13.41-12-23.18-12q-36.9.14-73.77.3c-.65.34-1.27.61-1.74.92-1.89,1.08-3.53,2.49-2.83,4.89s2.93,1.94,4.78,2a5.93,5.93,0,0,1,3,.39c23.89.05,47.78,0,71.67.19,10.37.06,16.71,6.5,16.82,16.74,0,2.95-.37,6,0,9,.58,4.83-1.22,6.11-6,6.11-26.87-.22-53.75-.14-80.63-.14-5.28,0-10.59-.06-15.5,2.25-7.21,3.41-10.59,9.6-11.21,17.2-.59,7,1.79,14,8,16.53,6.41,2.64,6.83,6.4,6.34,11.71a6.74,6.74,0,0,0,.12,2.1c.55,2.4,2.11,3.49,4.55,3.49,2.63,0,3.82-1.24,3.86-3.88s.1-5.27.1-7.91c-.07-9.61,2.1-12.06,11.51-12.06q41.37-.22,82.74-.11c3.53,0,4.88-.83,4.88-4.62C922.17,82.62,922.33,69.26,922.27,55.91Zm-8.88,29.43c-.17,3.56.88,6.75-5,6.63-23.36-.48-46.74-.27-70.1-.59-8.39-.11-16,1-21.88,7.78-2.66,3.06-4.89,1.79-6.4-1.46-3.88-8.39,1.41-17.06,11-17.25,14.92-.3,29.86-.08,44.79-.08l0-.44c14.24,0,28.48.27,42.69-.15C913.39,79.63,913.56,81.78,913.39,85.34Z"/><path class="cls-1" d="M66.69,880.49c0-6.87,4.57-11.26,11.7-11.2,6.56.06,12.32,5.71,12.15,11.93-.15,5.67-6.36,11.21-12.46,11.13C71.49,892.25,66.71,887.28,66.69,880.49Z"/><path class="cls-178" d="M489.62,294.25c-.13,17-16,32.2-33.37,32s-33.05-15.69-32.74-32.07a33.18,33.18,0,0,1,33.39-32.36C474.49,262,489.75,277.08,489.62,294.25Z"/><path class="cls-178" d="M674.15,173.44c16.9-1.41,29.73,5.46,38.21,19.84,13.84,23.51.44,53.52-26.29,59.24-15.69,3.36-28.87-1.69-39.06-13.7s-12.54-26-6.88-40.79c.68-1.8.29-7.2,5.43-4.36,2.61,1.06,4.91,1.35,6.75-1.57a4.29,4.29,0,0,1,4.31-2.2,2.23,2.23,0,0,1,1.21,2.91,2.33,2.33,0,0,1-.32.55c-1.86,2.95-1.22,5.85-.3,8.82-.1,3.51-1.74,6.72-1.72,10.31,0,10,6.15,18.59,15.57,21.34,10.13,3,20.18-.81,25.52-9.59,5.06-8.32,3.7-18.55-3.42-26.07-2.06-2.17-4.44-4-6.66-5.94-1.56-1.62-1.41-3.89-2.17-5.83-1.84-4.65-4-9-9.07-11C674.46,175.13,673.73,174.54,674.15,173.44Z"/><path class="cls-179" d="M656.35,202.18c-1.78-2.94-3.14-5.82-.08-8.88.84-.85,1.24-2.18-.29-3.06-1.51-2.47-2.77-5-2.34-8,.89-1.13,2.55-1.6,3.17-.65,3.08,4.73,5.3,1.59,7.71-.57,1-.93,2.4-1.43,3.39-2.48.4-1.48-4.7-1.47-1.07-3.82,2.39-.7,4.7-1.84,7.31-1.24,8.54,2.89,11.31,9.88,12.69,17.86-1.4,1.4-3,.61-4.44.29-8.22-1.76-15.2.21-20.88,6.59C660.08,199.82,659.12,202.21,656.35,202.18Z"/><path class="cls-180" d="M284.58,808.34c-3.78,0-8-4.09-7.91-7.66s4.49-8.12,7.73-8.14a8.09,8.09,0,0,1,7.87,8.15A7.68,7.68,0,0,1,284.58,808.34Z"/><path class="cls-181" d="M633.05,763c8.57,0,16.69,8,16.58,16.32s-8.08,16.22-16.72,16.35a16.58,16.58,0,0,1-16.67-16.49v-.08C616.32,770.62,624.27,763,633.05,763Z"/><path class="cls-182" d="M97.05,70.59c-2.56-.8-5.19-.3-7.79-.44-4.28-.22-8.58,1.58-12.85-.08C74.29,55.72,64.77,48.69,50.77,49.83c-5.24.43-10.54.07-15.8.33a16.5,16.5,0,0,0-15.72,16c-.14,9-.27,17.92,0,26.86.26,8.46,6.06,14.54,14.48,16.27,6.28,1.3,12.6.93,18.9.83,15.09-.25,23.93-9.77,23.54-24.89-.1-1.91-1.34-4.2,1-5.74,7.27-.93,14.57,0,21.88-.48C100.33,75.74,99,73.09,97.05,70.59ZM67.33,89.32a12.36,12.36,0,0,1-12.17,11.5q-9.21.32-18.42-.08C31,100.5,28,97.26,27.61,91.42c-.13-2.1-.07-4.21-.09-6.31s0-4.2,0-6.29v-10c.08-6.26,2.68-9.54,8.86-10a175.63,175.63,0,0,1,19.47-.16c5.87.26,9.95,4.28,10.93,10.2A83.89,83.89,0,0,1,67.33,89.32Z"/><path class="cls-183" d="M97.27,71.32c3.64,0,7.31.33,10.91-.08,4.25-.48,4.65,3,4.92,5.19.31,2.47-2.7,1.87-4.4,2-3.11.18-6.23.08-9.35.09C96.64,76.69,97.52,73.82,97.27,71.32Z"/><path class="cls-184" d="M342.21,816c2.5.87,5,1.92,5,4.18s-2.78,3-5,4.23Z"/><path class="cls-185" d="M250.22,183.25c-.65,3.46-2.06,6.07-6,5.93-3.75-.13-6.95-3.68-6.57-7.26.4-3.84,2.29-6.16,6.49-5.69S250,179.36,250.22,183.25Z"/><path class="cls-26" d="M855.13,108.34c-11.83,0-21.58,10.46-21.64,23.14,0,12.05,10.2,22.05,22.64,22.05,13.21,0,23.6-9.56,23.52-21.69C879.57,119,868.43,108.34,855.13,108.34ZM856.3,145c-7.35.06-14.13-6.68-14.18-14.1s6-13.21,14-13.24,15,6.29,14.93,13.82C871,138.6,864.16,144.89,856.3,145Z"/><path class="cls-186" d="M443.12,883.14c3.48-7.19,8-10.16,14.61-9.56,5.85.53,10,4.61,11.78,11.55-4.88,2.49-10.15,1.63-15.28,1.64-2.76,0-5.52-.43-8.3-.54C444.15,886.16,442.29,885.82,443.12,883.14Z"/><path class="cls-187" d="M443.12,883.14c0,1.51.56,2,2.18,2,8.07-.09,16.14,0,24.21,0-.35,1.83-1,2.6-3.3,2.87-6.94.84-13.76-.09-20.6-.65C443.22,887.15,440.77,886.42,443.12,883.14Z"/><path class="cls-188" d="M314.68,38.38c6.23-1.41,12.8-.74,18.88-3,2,5.82.94,7.68-4.92,8.46a20,20,0,0,0-4.07.84C317.49,47.16,315.74,46.08,314.68,38.38Z"/><path class="cls-189" d="M172.9,320.12a57.36,57.36,0,0,1,15.21,6.41c2,1.26-.43,3.06-.92,4.53-2.59,7.61-2.66,7.59-10.25,4.56a18,18,0,0,1-2-.78c-2.21-1.23-6.41-1-6.47-3.37-.1-3.43,1.84-6.94,3-10.38C171.68,320.6,172.52,320.34,172.9,320.12Z"/><path class="cls-190" d="M272.9,219.82c-.28,4.22-2.58,6.21-6.45,6.4a6.63,6.63,0,0,1-6.91-6.36,4.68,4.68,0,0,1,0-.53c.23-4.2,2.84-5.74,6.66-5.77C270.53,213.51,272.51,216,272.9,219.82Z"/><path class="cls-191" d="M573.13,627.82c-1.75-1.41-6.39,2.67-6.52-3.32-.09-3.81.74-6.15,5.19-5.26a16.23,16.23,0,0,0,2.61,0c3.13.06,6.62-1,6.51,4.5-.11,5.27-3.41,4-6.35,4Z"/><path class="cls-192" d="M225.81,249.09c3.11.43,6.17,1.46,6.45,5.71.24,3.59-2.76,6.41-6.69,6.42-3.74,0-5.92-1.7-6-5.63S221.33,249.37,225.81,249.09Z"/><path class="cls-193" d="M373.71,628.9c.11,10.58.12,10.5-10.6,9.64-2.33-.18-3.52-.72-3.54-3.26a98.67,98.67,0,0,0-.52-11c-.5-4.19,1.08-5.25,5.18-5.14C373.6,619.42,373.6,619.18,373.71,628.9Z"/><path class="cls-194" d="M270.78,764.3c-.4,6-4.45,9.65-10.34,9.25-4.53-.32-9.25-5.11-9.09-9.23.19-5.13,5.52-10.1,10.43-9.73S271.09,759.68,270.78,764.3Z"/><path class="cls-195" d="M907.61,137.27c-9.34-.08-15.93,6.59-16.07,16.28,0,.25,0,.49,0,.74a16.55,16.55,0,0,0,16.72,16.38c9.94,0,16.85-6.78,17-16.73C925.39,144.36,918,137.35,907.61,137.27Zm9,17c0,4.31-3.57,7.54-8.33,7.47-4-.06-8-3.63-8.17-7.31a8.35,8.35,0,0,1,8.24-8.44,8,8,0,0,1,8.26,7.73Z"/><path class="cls-196" d="M532.16,620.89l4,12h-8.85l3.75-12.11Z"/><path class="cls-197" d="M650.8,619.35c5.86,0,7.68,2.8,7.79,7a7,7,0,0,1-13.9,0C644.76,621.9,647.48,619.28,650.8,619.35Z"/><path class="cls-198" d="M269.9,619.43c5,0,6.9,2.75,7.09,7a6.72,6.72,0,0,1-6.41,7,4.17,4.17,0,0,1-.5,0c-4.25,0-7.48-3.25-7-7.4S265.58,619.12,269.9,619.43Z"/><path class="cls-199" d="M195.07,220.66c4.84.06,7.32,1.81,7.63,5.82.27,3.53-3.5,7.54-6.81,7.11-3.79-.5-5.89-3-6-6.76C189.9,222.88,192,220.7,195.07,220.66Z"/><path class="cls-200" d="M607.61,286.82c.47-3.73,1.56-6.61,5.51-6.76,3.76-.15,5.86,2.11,6.08,5.7.23,3.82-2.17,5.79-5.73,6S608.24,289.82,607.61,286.82Z"/><path class="cls-201" d="M308.59,286.38a5.56,5.56,0,0,1-5.67,5.29,5.12,5.12,0,0,1-5.7-4.49,4.35,4.35,0,0,1,0-1c.05-3.38,2-6.22,5.87-6C306.4,280.29,308.49,282.34,308.59,286.38Z"/><path class="cls-202" d="M645,322.08c-.22,3.12-1.89,5.26-5.2,5.19-2.83,0-4.45-2.14-4.36-4.87.1-2.92,1.83-5,4.94-5.06C643.19,317.3,644.8,319,645,322.08Z"/><path class="cls-203" d="M282,322.28c-.12,3.39-2,5-5.07,4.88a4.12,4.12,0,0,1-4.21-4,3.7,3.7,0,0,1,0-.47c.07-2.94,1.62-4.91,4.93-5S281.9,319.58,282,322.28Z"/><path class="cls-204" d="M475.15,293.82c0,10.61-8.18,18.67-19.16,18.78-9.65.1-18.9-9.24-18.78-19,.12-9.93,8.59-18.52,18.43-18.68C466.84,274.82,475.11,282.82,475.15,293.82Z"/><path class="cls-34" d="M656.35,202.18c9.57-12.4,16.3-14.8,30.49-10.88,12.92,7.65,17.67,20.26,12,31.8-5.44,11-18.17,16.18-29.17,11.79-12.66-5-18.54-17.25-14.36-29.77C655.62,204.13,656,203.16,656.35,202.18Z"/><path class="cls-205" d="M632.65,771.42a7.76,7.76,0,0,1,7.78,7.75v.37a7.63,7.63,0,0,1-7.57,7.67h-.06a7.9,7.9,0,1,1-.7-15.78Z"/><path class="cls-206" d="M264.47,764.48c-.32,2.38-2,3.24-4,3.32-2.22.09-2.91-1.35-2.86-3.38,0-2.25,1-3.66,3.37-3.65S264.11,762.52,264.47,764.48Z"/><path class="cls-207" d="M464.29,293.56c0,4.25-3.87,7.58-8.82,7.63-4.15,0-7.88-3.45-7.92-7.38a8.37,8.37,0,0,1,16.74-.25Z"/><path class="cls-208" d="M666.71,217.72c-2.41-4.81-1.17-9.18,2.12-12.88,3-3.43,7-4.86,11.65-3.09,2.6,4.76,1.9,7.44-3.76,13.58C674,218.33,670.9,220.44,666.71,217.72Z"/><path class="cls-209" d="M666.71,217.72c5.82.59,13.44-5.87,14.82-11.43.55-2.23-4.94-2.29-1-4.54,1.64.28,3.3.52,4.23,2.18,3.31,7.5-1.55,16.76-10.58,20.14C670.32,223.51,668.42,220.72,666.71,217.72Z"/><path class="cls-210" d="M674.13,224.07c3.84-3.93,8.44-7,10.42-12.79,1-2.82-1.22-5,.16-7.35,5.48,4.69,6.65,9.33,3.68,14.58A11.94,11.94,0,0,1,674.13,224.07Z"/></g></g></svg>